<?xml version="1.0" encoding="UTF-8"?>
<svg id="_레이어_1" data-name="레이어_1" xmlns="http://www.w3.org/2000/svg" version="1.1" viewBox="0 0 213.27 213.27">
  <!-- Generator: Adobe Illustrator 30.2.1, SVG Export Plug-In . SVG Version: 2.1.1 Build 1)  -->
  <defs>
    <style>
      .st0 {
        fill: #fff;
      }

      .st1 {
        fill: #C5D900;
      }

      .st2 {
        fill: #9FB300;
      }
    </style>
  </defs>
  <rect class="st1" width="213.27" height="213.27" rx="52.87" ry="52.87"/>
  <g>
    <path d="M140.46,112.73c-7.3-11.59-18.23-17.62-34.05-14.73,5.21-5.34,9.38-19.14,2.66-29.87-4.72-7.54-12.95-12.56-23.42-12.65-8.8-.11-21.63,4.03-31.38,8.82-9.9,4.86-21.03,12.33-28.06,19.42-4.1,4.09-2.78,9.08,1.82,13.88,2.05,2.05,5.76,2.04,8.28,1.83,12.7,27.2,26.96,63.18,34.03,80.83,1.67,4.08,7.98,1.59,11.21.5,3.38-1.16,9.66-2.52,9.38-7.23,12.45-.06,25.79-5.54,36.11-11.53,17.3-9.89,24.8-31.53,13.41-49.27Z"/>
    <path d="M109.29,24.82c.2-.3.25-.56.25-.81,0-2.22-3.13-3.54-5.06-3.54-1.11,0-3.24.4-4.3,1.57-4.65,5.06-8.9,11.12-8.9,16.73,0,5,3.34,8.04,8.44,8.7,8.8,1.11,13.55-4.7,14.66-10.21.96-4.95.2-9.96-5.11-12.44Z"/>
    <path class="st0" d="M100.78,56.99c.12-.17.15-.32.15-.46,0-1.28-1.8-2.03-2.9-2.03-.64,0-1.86.23-2.47.9-2.67,2.9-5.11,6.38-5.11,9.6,0,2.87,1.91,4.61,4.85,4.99,5.05.64,7.78-2.7,8.41-5.86.55-2.84.12-5.72-2.93-7.14Z"/>
    <path d="M171.04,97.41c-.27-1.08-1.18-3.04-2.57-3.79-6.04-3.28-12.95-5.92-18.4-4.56-4.85,1.22-6.98,5.19-6.38,10.31,1.06,8.8,7.86,12,13.48,11.73,5.04-.27,9.71-2.23,10.82-7.98.34.12.6.11.85.05,2.16-.54,2.67-3.9,2.2-5.77Z"/>
    <path d="M119.69,49.07c7.34-6.99,20.56-8.99,32.97-9.2,2.84-.06,6.02,2.22,7.4,3.67,2.39,2.51,4.58,8.25,1.67,11.02-.33.32-.72.56-1.37.68,3.37,10.03-2.23,17.25-9.91,22.17-8.59,5.41-22.12,6.43-31.61-6.46-5.5-7.5-5.68-15.64.86-21.87ZM129.87,68.5c4.09,4.3,10.96.92,14.73-2.67s4.98-8.14,3.91-11.79c-5.23.07-12.23.93-16.72,5.21-3.7,3.53-4.05,7-1.91,9.25Z"/>
    <path class="st0" d="M63.07,87.17c.28-.02.56-.04.83-.11.6-.17.83-.37,1.3-.76.24-.2.4-.5.59-.75-.15.19-.29.38-.44.57.03-.04.06-.07.09-.1-.19.15-.38.29-.57.44.01-.01.03-.02.04-.03-.22.09-.45.19-.67.28.03-.01.05-.02.08-.02-.25.03-.5.07-.74.1.01,0,.02,0,.03,0,.25-.03.5-.07.74-.1.47-.13.88-.37,1.23-.72.52-.52.82-1.24.82-1.98s-.3-1.45-.82-1.98c-.5-.5-1.26-.86-1.98-.82-.28.01-.56.04-.83.11-.6.17-.83.37-1.3.76-.24.2-.4.5-.59.75.15-.19.29-.38.44-.57-.03.04-.06.07-.09.1.19-.15.38-.29.57-.44-.01.01-.03.02-.04.03.22-.09.45-.19.67-.28-.03.01-.05.02-.08.02.25-.03.5-.07.74-.1-.01,0-.02,0-.03,0-.25.03-.5.07-.74.1-.47.13-.88.37-1.23.72-.52.52-.82,1.24-.82,1.98s.3,1.45.82,1.98c.5.5,1.26.86,1.98.82h0Z"/>
    <path d="M69.32,168.17l-29.07-4.59s10.27-14.69,31.73-10.2l-2.66,14.79Z"/>
    <path class="st2" d="M177.09,174.84c-1.68,3.17-4.62,7.32-6.81,9.63-1.02,1.06-4.89-1.17-3.8-2.86-.35-7.08-1.96-11.94-2.54-16.83-.12-.98,1.33-1.21,2.07-1.37.9-.16,2.35-.63,2.9.51,1.06,2.23,2,6.26,2.9,11.04l4.58-7.51c.35-.55,2.31-.39,2.74.39l3.21,7.16c.78-3.29,1.25-6.93,1.6-9.98.12-1.06,1.64-.86,2.39-.82.94.12,2.54.04,2.62,1.29.23,3.95-1.33,11.7-2.5,16.24-.82,3.13-3.05,4.11-4.5,1.88-1.92-2.97-3.84-6.61-4.85-8.77Z"/>
    <path class="st2" d="M139.35,183.36c-1.68,3.17-4.62,7.32-6.81,9.63-1.02,1.06-4.89-1.17-3.8-2.86-.35-7.08-1.96-11.94-2.54-16.83-.12-.98,1.33-1.21,2.07-1.37.9-.16,2.35-.63,2.9.51,1.06,2.23,2,6.26,2.9,11.04l4.58-7.51c.35-.55,2.31-.39,2.74.39l3.21,7.16c.78-3.29,1.25-6.93,1.6-9.98.12-1.06,1.64-.86,2.39-.82.94.12,2.54.04,2.62,1.29.23,3.95-1.33,11.7-2.5,16.24-.82,3.13-3.05,4.11-4.5,1.88-1.92-2.97-3.84-6.61-4.85-8.77Z"/>
  </g>
</svg>