<?xml version="1.0" encoding="UTF-8"?>
<svg id="_레이어_1" data-name="레이어_1" xmlns="http://www.w3.org/2000/svg" version="1.1" viewBox="0 0 213.27 213.27">
  <!-- Generator: Adobe Illustrator 30.2.1, SVG Export Plug-In . SVG Version: 2.1.1 Build 1)  -->
  <defs>
    <style>
      .st0 {
        fill: #231815;
      }

      .st1 {
        fill: #fff;
      }

      .st2 {
        fill: #C5D900;
      }
    </style>
  </defs>
  <rect class="st2" width="213.27" height="213.27" rx="52.87" ry="52.87"/>
  <path d="M181.37,135.57c-2.77-20.15-13.85-35.02-37.03-40.81,10.33-4.03,24.44-20.15,21.92-38.79-1.76-13.1-9.82-24.94-23.93-31.49-11.84-5.54-31.74-7.81-47.87-7.31-16.37.51-36.02,3.78-49.88,9.07-8.06,3.02-9.32,10.58-6.05,19.9,1.51,4.03,6.55,6.3,10.07,7.56.51,44.59-2.26,102.02-3.53,130.24-.25,6.55,9.83,7.05,14.86,7.55,5.29.51,14.61,2.52,17.13-4.03,16.88,7.56,38.29,8.31,55.92,6.55,29.47-2.77,52.9-27.46,48.37-58.44Z"/>
  <g>
    <path class="st1" d="M107.43,140.08c1.26-1.95,1.8-5.57.47-8.02-.86-1.58-2.38-2.4-4.24-2.28-1.79.12-3.12,1.03-3.64,2.51-.52,1.46-1.62,6.13.04,8.31.85,1.11,2.05,1.72,3.39,1.72h0c1.57,0,3.1-.85,3.99-2.23Z"/>
    <path class="st1" d="M140.52,132.23c-.86-1.58-2.38-2.4-4.24-2.28-1.79.12-3.12,1.03-3.64,2.51-.52,1.46-1.62,6.13.04,8.31.85,1.11,2.05,1.72,3.39,1.72h0c1.57,0,3.1-.85,3.99-2.23,1.26-1.95,1.8-5.57.47-8.02Z"/>
    <path class="st1" d="M114.17,134.15h0c.5,0,.96-.08,1.38-.25,1.75-.68,2.91-2.1,3.47-4.2.49-1.86.54-4.72-.93-6.65-.84-1.1-2.04-1.7-3.46-1.71h-.06c-1.59,0-3.62.87-4.3,2.77-.84,2.36-.52,6.33.09,7.76.68,1.57,2.4,2.27,3.8,2.27Z"/>
    <path class="st1" d="M125.89,134.47s.07,0,.1,0c1.48-.03,2.71-.6,3.56-1.67,1.98-2.49,1.27-6.74,1-7.98-.4-1.86-1.82-2.93-3.9-2.93-.58,0-1.2.09-1.8.25-1.9.52-2.89,2.89-3.09,4.36-.43,3.18-.08,5.37,1.06,6.68.74.84,1.8,1.29,3.06,1.29Z"/>
    <path class="st1" d="M129.67,141.44c-3.11-2.27-6.23-3.45-9.27-3.5-.07,0-.14,0-.2,0-2.89,0-6.12,1.11-9.09,3.13-2.46,1.67-4.55,4.35-5.88,7.55-1.7,4.07-1.3,7.58,1.09,9.61,1,.85,2.22,1.28,3.62,1.28,1.63,0,3.26-.57,4.69-1.08.45-.16.87-.31,1.27-.43.56-.17,1.14-.26,1.77-.26,1.65,0,3.4.6,5.09,1.17.79.27,1.61.55,2.41.77,1.14.31,2.27.47,3.35.47,2.18,0,4.12-.63,5.77-1.87,1.41-1.06,2.25-2.61,2.43-4.48.14-1.49-.16-3.18-.85-4.77-1.26-2.91-3.45-5.61-6.18-7.6Z"/>
  </g>
  <g>
    <path class="st1" d="M136.97,56.37c-1.04-3.32-2.88-6.22-6.27-7.52-2.47-.94-5.04-1.29-7.57-1.99-.98-.27-1.32-1.08-1.15-1.8-7.38-5.91-16.26-8.98-25.78-6.42-.19.59-1.09.91-1.8.53-5.53-3.05-11.36-4.34-17.47-1.9-5.39,2.15-9.86,5.95-13.37,10.53-1.85,2.41-4.3,5.38-4.21,8.6.13,4.55,3.92,5.54,7.8,5.59,5.97.08,11.76-1.14,17.21-3.57,1.53-.68,3.09,1.31,2.06,2.37-1.33,4.38-1.86,9.26-1.17,13.79.28,1.83.71,4.37,1.63,6.56.1-.14.22-.28.35-.42,2.2-2.25,5.58-2.18,8.42-1.2,2.19.76,4.22,2.71,3.7,4.8,1.76-.82,3.42-1.86,4.88-2.87,3.7-2.56,6.89-5.58,9.63-9.16,1.14-1.49,3.79-.11,3.35,1.46,2.2,4.98,5,11.89,11.16,12.49,6.89.67,8.7-6.97,9.42-12.35.76-5.7.93-11.97-.81-17.51ZM96.98,57.61s-.04,0-.06,0c.16-.05.33-.09.49-.14-.62.18-1.17.26-1.8.04-.41-.14-.76-.37-1.05-.69-.54-.58-.77-1.43-.5-2.19.34-.98,1.38-1.51,2.38-1.42.44.04.84.18,1.21.43.19.13.36.28.51.45.02.02.03.03.05.05,1.19,1.18.45,3.28-1.21,3.46ZM113.45,63.38s-.04,0-.06,0c.16-.05.33-.09.49-.14-.62.18-1.17.26-1.8.04-.41-.14-.76-.37-1.05-.69-.54-.58-.77-1.43-.5-2.19.34-.98,1.38-1.51,2.38-1.42.44.04.84.18,1.21.43.19.13.36.28.51.45.02.02.03.03.05.05,1.19,1.18.45,3.28-1.21,3.46Z"/>
    <path class="st0" d="M140.24,79.53c2.16-7.49,2.24-16.12.32-23.67-1.96-7.71-8.8-11.48-16.34-12.01-7.16-8.08-19.52-10.52-29.66-7.79-.14.04-.25.08-.35.14-4.67-3.42-11.72-3.71-17.02-2.1-7.62,2.31-13.48,7.93-17.99,14.29-4.1,5.78-4.28,13.85,3.72,15.93,6.64,1.72,14.47.19,20.91-2.33-2.7,8.52-2.96,21.65,5.85,25.99,4.65,2.29,9.96.16,14.14-2.16,4.47-2.48,8.37-5.85,11.66-9.74,2.15,5.68,5.36,11.03,11.59,12.82,6.9,1.98,11.43-3.33,13.17-9.37ZM128.36,86.23c-6.17-.6-8.96-7.51-11.16-12.49.45-1.57-2.2-2.96-3.35-1.46-2.74,3.57-5.93,6.59-9.63,9.16-1.46,1.01-3.12,2.06-4.88,2.87.51-2.09-1.51-4.04-3.7-4.8-2.85-.98-6.22-1.05-8.42,1.2-.13.14-.25.28-.35.42-.92-2.19-1.35-4.73-1.63-6.56-.69-4.53-.16-9.41,1.17-13.79,1.03-1.06-.52-3.06-2.06-2.37-5.45,2.43-11.24,3.65-17.21,3.57-3.88-.05-7.67-1.04-7.8-5.59-.09-3.22,2.36-6.19,4.21-8.6,3.52-4.58,7.99-8.38,13.37-10.53,6.11-2.44,11.94-1.15,17.47,1.9.7.39,1.61.06,1.8-.53,9.52-2.55,18.4.52,25.78,6.42-.16.72.17,1.53,1.15,1.8,2.53.7,5.1,1.05,7.57,1.99,3.4,1.3,5.23,4.2,6.27,7.52,1.74,5.55,1.57,11.82.81,17.51-.72,5.37-2.53,13.02-9.42,12.35Z"/>
    <path class="st0" d="M98.19,54.15s-.03-.03-.05-.05c-.15-.17-.31-.33-.51-.45-.37-.24-.77-.38-1.21-.43-1-.09-2.03.44-2.38,1.42-.27.76-.04,1.6.5,2.19.29.32.65.54,1.05.69.64.22,1.18.14,1.8-.04-.16.05-.33.09-.49.14.02,0,.04,0,.06,0,1.66-.18,2.4-2.28,1.21-3.46Z"/>
    <path class="st0" d="M114.66,59.91s-.03-.03-.05-.05c-.15-.17-.31-.33-.51-.45-.37-.24-.77-.38-1.21-.43-1-.09-2.03.44-2.38,1.42-.27.76-.04,1.6.5,2.19.29.32.65.54,1.05.69.64.22,1.18.14,1.8-.04-.16.05-.33.09-.49.14.02,0,.04,0,.06,0,1.66-.18,2.4-2.28,1.21-3.46Z"/>
  </g>
</svg>