<?xml version="1.0" encoding="UTF-8"?>
<svg id="_레이어_1" data-name="레이어_1" xmlns="http://www.w3.org/2000/svg" version="1.1" viewBox="0 0 213.27 213.27">
  <!-- Generator: Adobe Illustrator 30.2.1, SVG Export Plug-In . SVG Version: 2.1.1 Build 1)  -->
  <defs>
    <style>
      .st0 {
        fill: #fff;
      }

      .st1 {
        fill: #C5D900;
      }
    </style>
  </defs>
  <rect class="st1" width="213.27" height="213.27" rx="52.87" ry="52.87"/>
  <g>
    <path class="st0" d="M148.17,73.71h0c-6.1-7.26-14.7-11.97-24.11-13.19h0c-14.36-1.86-28.96-.17-42.51,4.94h0c-3.57,1.35-6.98,3.11-10.15,5.24h0c-5.65,3.81-28.6,42.41-28.6,42.41-3.92,5.92-10.18,9.88-17.21,10.9l-4.95.72,1.18,9.24c5.69,36.9,57.51,35.29,63.83,36.79l.52.12c15.01,3.56,30.6,3.99,45.79,1.27h0c8.28-1.48,15.8-5.75,21.31-12.1h0c7.66-8.81,12.59-19.67,14.17-31.25h0c1.08-7.9.4-15.94-1.99-23.55h0c-3.63-11.56-9.51-22.28-17.3-31.56Z"/>
    <path d="M145,83.78l16.06-16.06c4.89-4.89,12.14-6.55,18.68-4.29l13.33,4.62c5.39,1.87,7.57,8.33,4.4,13.08l-4.95,7.43c-3.01,4.52-9.37,5.22-13.29,1.47l-3.95-3.78c-2.95-2.82-7.23-3.73-11.07-2.36l-13.55,4.84-5.66-4.95Z"/>
    <path d="M93.75,68.56v-22.71c0-6.91,3.95-13.22,10.17-16.24l12.69-6.15c5.14-2.49,11.24.54,12.36,6.14l1.75,8.75c1.06,5.32-2.94,10.31-8.36,10.43l-5.46.12c-4.07.09-7.75,2.47-9.49,6.16l-6.16,13-7.5.5Z"/>
    <circle cx="20.71" cy="124.69" r="6.37"/>
    <circle cx="102.64" cy="145.74" r="3.54"/>
    <path d="M64.32,177.78c.14,1.87-5.71,3.55-6.24.93-6.78-5.71-18.37-14.42-23.68-17.87-1.08-.72.11-2.4.72-3.23.72-1,2.12-3.27,3.55-2.55,3.37,1.72,11.91,8.04,18.37,13.06l-4.59-15.36c-.22-.86,1.61-2.4,2.73-1.94l13.2,4.95c-3.23-5.31-10.48-13.92-12.81-17.12-.79-1.08.75-2.26,1.54-2.98.93-.72,2.44-2.37,3.66-1.29,2.8,2.51,13.49,16.79,17.83,24.08,2.15,3.59.79,7.03-2.55,5.99-4.63-1.47-9.8-3.12-14.35-4.52,1.36,5.38,2.3,12.56,2.62,17.83Z"/>
  </g>
</svg>