<?xml version="1.0" encoding="UTF-8"?>
<svg id="_레이어_1" data-name="레이어_1" xmlns="http://www.w3.org/2000/svg" version="1.1" viewBox="0 0 213.27 213.27">
  <!-- Generator: Adobe Illustrator 30.2.1, SVG Export Plug-In . SVG Version: 2.1.1 Build 1)  -->
  <defs>
    <style>
      .st0 {
        fill: #231815;
      }

      .st1 {
        fill: #be8201;
      }

      .st2 {
        fill: #C5D900;
      }

      .st3, .st4 {
        fill: #fff;
      }

      .st5 {
        fill: #b8792d;
      }

      .st6 {
        fill: #231f20;
      }

      .st7 {
        fill: #2f606a;
      }

      .st8 {
        fill: #C5D900;
      }

      .st9 {
        fill: #9FB300;
      }

      .st10 {
        fill: #460e00;
      }

      .st11 {
        font-size: 58.88px;
      }

      .st11, .st4 {
        font-family: KCCMurukmuruk-KSCpc-EUC-H, KCCMurukmuruk;
      }

      .st4 {
        font-size: 30.41px;
      }
    </style>
  </defs>
  <rect class="st8" x="-253.06" y="-266.12" width="213.27" height="213.27" rx="52.87" ry="52.87"/>
  <rect class="st8" x="-497.26" y="-266.13" width="213.27" height="213.27" rx="-35.36" ry="-35.36"/>
  <rect class="st8" x="-499.26" y="3.99" width="213.27" height="213.27" rx="-36.36" ry="-36.36"/>
  <text class="st11" transform="translate(-413.85 -459.27)"><tspan x="0" y="0">With</tspan></text>
  <text class="st11" transform="translate(-413.85 -382.99)"><tspan x="0" y="0">With Me</tspan></text>
  <text class="st4" transform="translate(319.48 -166.26)"><tspan x="0" y="0">With Me</tspan></text>
  <text class="st11" transform="translate(-173.16 -381.36)"><tspan x="0" y="0">Run</tspan></text>
  <g>
    <path class="st3" d="M-349.09-192.42h0c-6.1-7.26-14.7-11.97-24.11-13.19h0c-14.36-1.86-28.96-.17-42.51,4.94h0c-3.57,1.35-6.98,3.11-10.15,5.24h0c-5.65,3.81-28.6,42.41-28.6,42.41-3.92,5.92-10.18,9.88-17.21,10.9l-4.95.72,1.18,9.24c5.69,36.9,57.51,35.29,63.83,36.79l.52.12c15.01,3.56,30.6,3.99,45.79,1.27h0c8.28-1.48,15.8-5.75,21.31-12.1h0c7.66-8.81,12.59-19.67,14.17-31.25h0c1.08-7.9.4-15.94-1.99-23.55h0c-3.63-11.56-9.51-22.28-17.3-31.56Z"/>
    <path d="M-352.27-182.35l16.06-16.06c4.89-4.89,12.14-6.55,18.68-4.29l13.33,4.62c5.39,1.87,7.57,8.33,4.4,13.08l-4.95,7.43c-3.01,4.52-9.37,5.22-13.29,1.47l-3.95-3.78c-2.95-2.82-7.23-3.73-11.07-2.36l-13.55,4.84-5.66-4.95Z"/>
    <path d="M-403.52-197.57v-22.71c0-6.91,3.95-13.22,10.17-16.24l12.69-6.15c5.14-2.49,11.24.54,12.36,6.14l1.75,8.75c1.06,5.32-2.94,10.31-8.36,10.43l-5.46.12c-4.07.09-7.75,2.47-9.49,6.16l-6.16,13-7.5.5Z"/>
    <circle cx="-476.55" cy="-141.44" r="6.37"/>
    <circle cx="-394.63" cy="-120.39" r="3.54"/>
    <path d="M-432.94-88.35c.14,1.87-5.71,3.55-6.24.93-6.78-5.71-18.37-14.42-23.68-17.87-1.08-.72.11-2.4.72-3.23.72-1,2.12-3.27,3.55-2.55,3.37,1.72,11.91,8.04,18.37,13.06l-4.59-15.36c-.22-.86,1.61-2.4,2.73-1.94l13.2,4.95c-3.23-5.31-10.48-13.92-12.81-17.12-.79-1.08.75-2.26,1.54-2.98.93-.72,2.44-2.37,3.66-1.29,2.8,2.51,13.49,16.79,17.83,24.08,2.15,3.59.79,7.03-2.55,5.99-4.63-1.47-9.8-3.12-14.35-4.52,1.36,5.38,2.3,12.56,2.62,17.83Z"/>
  </g>
  <text class="st11" transform="translate(-266.21 -459.27)"><tspan x="0" y="0">Bowwow</tspan></text>
  <path d="M33.81-413.84c5.42,1.35,8.01,4.83,8.66,9.54,1.06,7.24-4.42,13.01-11.31,13.66-4.12.41-9.13.24-13.07-1.53-.59,1.53-2.77,1.06-4,.94-1.18-.12-3.53-.24-3.47-1.77.29-6.6.94-20.02.82-30.44-.82-.29-2-.82-2.35-1.77-.77-2.18-.47-3.95,1.41-4.65,3.24-1.24,7.83-2,11.66-2.12,3.77-.12,8.42.41,11.19,1.71,3.3,1.53,5.18,4.3,5.59,7.36.59,4.36-2.71,8.13-5.12,9.07ZM27.15-408.25l-7.12.71c-.12,3.24-.47,5.71-.77,8.24,2.41.71,5.42,1.06,8.36.71,3.47-.35,6.24-1.53,6.18-5.54-.06-2.83-2.71-4.83-6.65-4.12ZM20.5-424.15c.12,3.12.06,5.42-.06,9.25l4.59-.59c3.65-.47,5.95-3.18,5.24-6.42-.53-2.41-3.59-3.47-9.77-2.24Z"/>
  <path d="M47.06-401.24c0-6.54,4.95-13.6,10.36-19.49,1.24-1.35,3.71-1.83,5-1.83,2.24,0,5.89,1.53,5.89,4.12,0,.29-.06.59-.29.94,6.18,2.89,7.07,8.71,5.95,14.49-1.29,6.42-6.83,13.19-17.08,11.89-5.95-.77-9.83-4.3-9.83-10.13ZM60.66-397.35c3.83,0,5.3-4.71,5.3-8.07s-1.59-5.95-3.77-7.07c-2.3,2.47-5,6.12-5,10.13,0,3.3,1.47,5.01,3.47,5.01Z"/>
  <g>
    <path d="M-106.7-148.25c-7.3-11.59-18.23-17.62-34.05-14.73,5.21-5.34,9.38-19.14,2.66-29.87-4.72-7.54-12.95-12.56-23.42-12.65-8.8-.11-21.63,4.03-31.38,8.82-9.9,4.86-21.03,12.33-28.06,19.42-4.1,4.09-2.78,9.08,1.82,13.88,2.05,2.05,5.76,2.04,8.28,1.83,12.7,27.2,26.96,63.18,34.03,80.83,1.67,4.08,7.98,1.59,11.21.5,3.38-1.16,9.66-2.52,9.38-7.23,12.45-.06,25.79-5.54,36.11-11.53,17.3-9.89,24.8-31.53,13.41-49.27Z"/>
    <path d="M-137.87-236.16c.2-.3.25-.56.25-.81,0-2.22-3.13-3.54-5.06-3.54-1.11,0-3.24.4-4.3,1.57-4.65,5.06-8.9,11.12-8.9,16.73,0,5,3.34,8.04,8.44,8.7,8.8,1.11,13.55-4.7,14.66-10.21.96-4.95.2-9.96-5.11-12.44Z"/>
    <path d="M-76.12-163.57c-.27-1.08-1.18-3.04-2.57-3.79-6.04-3.28-12.95-5.92-18.4-4.56-4.85,1.22-6.98,5.19-6.38,10.31,1.06,8.8,7.86,12,13.48,11.73,5.04-.27,9.71-2.23,10.82-7.98.34.12.6.11.85.05,2.16-.54,2.67-3.9,2.2-5.77Z"/>
    <path d="M-127.47-211.91c7.34-6.99,20.56-8.99,32.97-9.2,2.84-.06,6.02,2.22,7.4,3.67,2.39,2.51,4.58,8.25,1.67,11.02-.33.32-.72.56-1.37.68,3.37,10.03-2.23,17.25-9.91,22.17-8.59,5.41-22.12,6.43-31.61-6.46-5.5-7.5-5.68-15.64.86-21.87ZM-117.29-192.47c4.09,4.3,10.96.92,14.73-2.67,3.7-3.53,4.98-8.14,3.91-11.79-5.23.07-12.23.93-16.72,5.21-3.7,3.53-4.05,7-1.91,9.25Z"/>
  </g>
  <path d="M97.58-406.24c-2.53,4.77-6.95,11.01-10.25,14.49-1.53,1.59-7.36-1.77-5.71-4.3-.53-10.66-2.94-17.96-3.83-25.32-.18-1.47,2-1.83,3.12-2.06,1.35-.24,3.53-.94,4.36.77,1.59,3.36,3,9.42,4.36,16.61l6.89-11.31c.53-.83,3.47-.59,4.12.59l4.83,10.78c1.18-4.95,1.88-10.42,2.41-15.02.18-1.59,2.47-1.29,3.59-1.24,1.41.18,3.83.06,3.95,1.94.35,5.95-2,17.61-3.77,24.44-1.24,4.71-4.59,6.18-6.77,2.83-2.89-4.47-5.77-9.95-7.3-13.19Z"/>
  <path class="st3" d="M364.61-359.48c6.39-12.04,17.54-27.79,25.86-36.56,3.87-4.01,18.58,4.46,14.42,10.85,1.34,26.9,7.43,45.33,9.66,63.91.45,3.71-5.05,4.61-7.88,5.2-3.42.59-8.92,2.38-11-1.93-4.01-8.47-7.58-23.78-11-41.92l-17.39,28.54c-1.34,2.08-8.77,1.49-10.4-1.49l-12.19-27.2c-2.97,12.49-4.76,26.31-6.09,37.9-.45,4.01-6.24,3.27-9.07,3.12-3.57-.45-9.66-.15-9.96-4.91-.89-15.01,5.05-44.44,9.51-61.68,3.12-11.89,11.59-15.61,17.09-7.13,7.28,11.29,14.57,25.12,18.43,33.29Z"/>
  <path d="M139.15-406.24c-2.53,4.77-6.95,11.01-10.25,14.49-1.53,1.59-7.36-1.77-5.71-4.3-.53-10.66-2.94-17.96-3.83-25.32-.18-1.47,2-1.83,3.12-2.06,1.35-.24,3.53-.94,4.36.77,1.59,3.36,3,9.42,4.36,16.61l6.89-11.31c.53-.83,3.47-.59,4.12.59l4.83,10.78c1.18-4.95,1.88-10.42,2.41-15.02.18-1.59,2.47-1.29,3.59-1.24,1.41.18,3.83.06,3.95,1.94.35,5.95-2,17.61-3.77,24.44-1.24,4.71-4.59,6.18-6.77,2.83-2.89-4.47-5.77-9.95-7.3-13.19Z"/>
  <path d="M161.23-401.24c0-6.54,4.95-13.6,10.36-19.49,1.24-1.35,3.71-1.83,5-1.83,2.24,0,5.89,1.53,5.89,4.12,0,.29-.06.59-.29.94,6.18,2.89,7.07,8.71,5.95,14.49-1.3,6.42-6.83,13.19-17.08,11.89-5.95-.77-9.83-4.3-9.83-10.13ZM174.83-397.35c3.83,0,5.3-4.71,5.3-8.07s-1.59-5.95-3.77-7.07c-2.3,2.47-5.01,6.12-5.01,10.13,0,3.3,1.47,5.01,3.47,5.01Z"/>
  <path d="M211.75-406.24c-2.53,4.77-6.95,11.01-10.25,14.49-1.53,1.59-7.36-1.77-5.71-4.3-.53-10.66-2.94-17.96-3.83-25.32-.18-1.47,2-1.83,3.12-2.06,1.35-.24,3.53-.94,4.36.77,1.59,3.36,3,9.42,4.36,16.61l6.89-11.31c.53-.83,3.47-.59,4.12.59l4.83,10.78c1.18-4.95,1.88-10.42,2.41-15.02.18-1.59,2.47-1.29,3.59-1.24,1.41.18,3.83.06,3.95,1.94.35,5.95-2,17.61-3.77,24.44-1.24,4.71-4.59,6.18-6.77,2.83-2.89-4.47-5.77-9.95-7.3-13.19Z"/>
  <g>
    <path class="st10" d="M94.05-605.22l-17.35,7.54c-2.63,1.15-4.34,3.74-4.34,6.61h0c0,3.98,3.23,7.21,7.21,7.21h24.28c3.71,0,6.73-3.01,6.73-6.73v-32.68h-10.75v9.22c0,3.83-2.27,7.29-5.78,8.82Z"/>
    <path class="st10" d="M138.54-606.36l-17.35,7.54c-2.63,1.15-4.34,3.74-4.34,6.61h0c0,3.98,3.23,7.21,7.21,7.21h24.28c3.71,0,6.73-3.01,6.73-6.73v-32.68h-10.75v9.22c0,3.83-2.27,7.29-5.78,8.82Z"/>
    <path class="st10" d="M230.34-605.79l-17.35,7.54c-2.63,1.15-4.34,3.74-4.34,6.61h0c0,3.98,3.23,7.21,7.21,7.21h24.28c3.71,0,6.73-3.01,6.73-6.73v-32.68h-10.75v9.22c0,3.83-2.27,7.29-5.78,8.82Z"/>
    <path class="st10" d="M274.83-606.93l-17.35,7.54c-2.63,1.15-4.34,3.74-4.34,6.61h0c0,3.98,3.23,7.21,7.21,7.21h24.28c3.71,0,6.73-3.01,6.73-6.73v-32.68h-10.75v9.22c0,3.83-2.27,7.29-5.78,8.82Z"/>
    <path class="st5" d="M111.16-804.8h9.3c30.3,0,60.07,8.02,86.27,23.24h0c25.52,14.83,47.15,35.51,63.1,60.35h0c18.47,28.76,28.29,62.22,28.29,96.4v5.46H86.38l24.78-185.46Z"/>
    <path class="st1" d="M98.44-824.76h0c-13.55-16.14-32.67-26.59-53.57-29.3h0c-31.91-4.14-64.34-.37-94.45,10.97h0c-7.94,2.99-15.51,6.9-22.55,11.65h0c-12.55,8.47-63.55,94.25-63.55,94.25-8.72,13.15-22.63,21.96-38.24,24.23l-11.01,1.6,2.63,20.52c12.64,82,127.8,78.41,141.85,81.75l1.16.28c33.36,7.91,68,8.87,101.75,2.82h0c18.39-3.3,35.1-12.78,47.36-26.88h0c17.03-19.59,27.97-43.72,31.48-69.44h0c2.39-17.55.88-35.42-4.42-52.32h0c-8.06-25.68-21.13-49.52-38.44-70.13Z"/>
    <path class="st10" d="M91.4-802.38l35.69-35.69c10.86-10.86,26.98-14.57,41.5-9.53l29.62,10.28c11.98,4.16,16.81,18.51,9.78,29.07l-11,16.5c-6.69,10.03-20.82,11.59-29.53,3.26l-8.77-8.39c-6.55-6.26-16.06-8.29-24.59-5.24l-30.1,10.75-12.58-11Z"/>
    <path class="st10" d="M-22.49-836.22v-50.47c0-15.37,8.78-29.38,22.61-36.08l28.21-13.68c11.41-5.53,24.98,1.2,27.47,13.64l3.89,19.45c2.36,11.82-6.52,22.92-18.58,23.18l-12.14.27c-9.05.2-17.22,5.5-21.1,13.68l-13.68,28.89-16.67,1.11Z"/>
    <circle cx="-184.79" cy="-711.49" r="14.15"/>
    <circle cx="-2.74" cy="-664.7" r="7.86"/>
    <path class="st10" d="M263.22-722.99l27.6-20.08s3.62,20.47-17.65,34.38l-9.95-14.31Z"/>
  </g>
  <g>
    <path class="st3" d="M554.5,12.61l-6.38,2.78c-.97.42-1.6,1.38-1.6,2.43h0c0,1.47,1.19,2.65,2.65,2.65h8.93c1.37,0,2.47-1.11,2.47-2.47V5.97h-3.95v3.39c0,1.41-.84,2.68-2.13,3.24Z"/>
    <path class="st3" d="M570.86,12.19l-6.38,2.78c-.97.42-1.6,1.38-1.6,2.43h0c0,1.47,1.19,2.65,2.65,2.65h8.93c1.37,0,2.47-1.11,2.47-2.47V5.55h-3.95v3.39c0,1.41-.84,2.68-2.13,3.24Z"/>
    <path class="st3" d="M604.64,12.4l-6.38,2.78c-.97.42-1.6,1.38-1.6,2.43h0c0,1.47,1.19,2.65,2.65,2.65h8.93c1.37,0,2.47-1.11,2.47-2.47V5.76h-3.95v3.39c0,1.41-.84,2.68-2.13,3.24Z"/>
    <path class="st3" d="M621.01,11.98l-6.38,2.78c-.97.42-1.6,1.38-1.6,2.43h0c0,1.47,1.19,2.65,2.65,2.65h8.93c1.37,0,2.47-1.11,2.47-2.47V5.34h-3.95v3.39c0,1.41-.84,2.68-2.13,3.24Z"/>
    <path class="st3" d="M560.79-60.83h3.42c11.15,0,22.1,2.95,31.74,8.55h0c9.39,5.46,17.35,13.07,23.22,22.2h0c6.8,10.58,10.41,22.89,10.41,35.47v2.01h-77.9l9.12-68.23Z"/>
    <path class="st3" d="M556.11-68.17h0c-4.99-5.94-12.02-9.78-19.71-10.78h0c-11.74-1.52-23.67-.14-34.75,4.04h0c-2.92,1.1-5.71,2.54-8.3,4.29h0c-4.62,3.12-23.38,34.68-23.38,34.68-3.21,4.84-8.32,8.08-14.07,8.92l-4.05.59.97,7.55c4.65,30.17,47.02,28.85,52.19,30.08l.43.1c12.28,2.91,25.02,3.26,37.44,1.04h0c6.77-1.21,12.92-4.7,17.43-9.89h0c6.27-7.21,10.29-16.09,11.58-25.55h0c.88-6.46.32-13.03-1.63-19.25h0c-2.97-9.45-7.77-18.22-14.14-25.8Z"/>
    <path class="st3" d="M553.52-59.94l13.13-13.13c4-4,9.93-5.36,15.27-3.51l10.9,3.78c4.41,1.53,6.19,6.81,3.6,10.7l-4.05,6.07c-2.46,3.69-7.66,4.26-10.86,1.2l-3.23-3.09c-2.41-2.3-5.91-3.05-9.05-1.93l-11.08,3.96-4.63-4.05Z"/>
    <path class="st3" d="M511.62-72.38v-18.57c0-5.65,3.23-10.81,8.32-13.28l10.38-5.03c4.2-2.04,9.19.44,10.11,5.02l1.43,7.16c.87,4.35-2.4,8.43-6.84,8.53l-4.47.1c-3.33.07-6.34,2.02-7.76,5.03l-5.03,10.63-6.13.41Z"/>
    <circle class="st3" cx="451.9" cy="-26.49" r="5.21"/>
    <circle class="st3" cx="518.88" cy="-9.28" r="2.89"/>
    <path class="st3" d="M616.74-30.73l10.16-7.39s1.33,7.53-6.5,12.65l-3.66-5.26Z"/>
  </g>
  <path class="st3" d="M490.87,180.07l-6.38,2.78c-.97.42-1.6,1.38-1.6,2.43h0c0,1.47,1.19,2.65,2.65,2.65h8.93c1.37,0,2.47-1.11,2.47-2.47v-12.02h-3.95v3.39c0,1.41-.84,2.68-2.13,3.24Z"/>
  <path class="st3" d="M507.24,179.65l-6.38,2.78c-.97.42-1.6,1.38-1.6,2.43h0c0,1.47,1.19,2.65,2.65,2.65h8.93c1.37,0,2.47-1.11,2.47-2.47v-12.02h-3.95v3.39c0,1.41-.84,2.68-2.13,3.24Z"/>
  <path class="st3" d="M541.01,179.86l-6.38,2.78c-.97.42-1.6,1.38-1.6,2.43h0c0,1.47,1.19,2.65,2.65,2.65h8.93c1.37,0,2.47-1.11,2.47-2.47v-12.02h-3.95v3.39c0,1.41-.84,2.68-2.13,3.24Z"/>
  <path class="st3" d="M557.38,179.44l-6.38,2.78c-.97.42-1.6,1.38-1.6,2.43h0c0,1.47,1.19,2.65,2.65,2.65h8.93c1.37,0,2.47-1.11,2.47-2.47v-12.02h-3.95v3.39c0,1.41-.84,2.68-2.13,3.24Z"/>
  <path class="st3" d="M497.17,106.64h3.42c11.15,0,22.1,2.95,31.74,8.55h0c9.39,5.46,17.35,13.07,23.22,22.2h0c6.8,10.58,10.41,22.89,10.41,35.47v2.01h-77.9l9.12-68.23Z"/>
  <path class="st3" d="M492.49,99.29h0c-4.99-5.94-12.02-9.78-19.71-10.78h0c-11.74-1.52-23.67-.14-34.75,4.04h0c-2.92,1.1-5.71,2.54-8.3,4.29h0c-4.62,3.12-23.38,34.68-23.38,34.68-3.21,4.84-8.32,8.08-14.07,8.92l-4.05.59.97,7.55c4.65,30.17,47.02,28.85,52.19,30.08l.43.1c12.28,2.91,25.02,3.26,37.44,1.04h0c6.77-1.21,12.92-4.7,17.43-9.89h0c6.27-7.21,10.29-16.09,11.58-25.55h0c.88-6.46.32-13.03-1.63-19.25h0c-2.97-9.45-7.77-18.22-14.14-25.8Z"/>
  <path class="st3" d="M489.9,107.53l13.13-13.13c4-4,9.93-5.36,15.27-3.51l10.9,3.78c4.41,1.53,6.19,6.81,3.6,10.7l-4.05,6.07c-2.46,3.69-7.66,4.26-10.86,1.2l-3.23-3.09c-2.41-2.3-5.91-3.05-9.05-1.93l-11.08,3.96-4.63-4.05Z"/>
  <path class="st3" d="M447.99,95.08v-18.57c0-5.65,3.23-10.81,8.32-13.28l10.38-5.03c4.2-2.04,9.19.44,10.11,5.02l1.43,7.16c.87,4.35-2.4,8.43-6.84,8.53l-4.47.1c-3.33.07-6.34,2.02-7.76,5.03l-5.03,10.63-6.13.41Z"/>
  <circle class="st3" cx="388.28" cy="140.97" r="5.21"/>
  <circle class="st3" cx="455.26" cy="158.18" r="2.89"/>
  <path class="st3" d="M384.4,37.75v-18.57c0-5.65,3.23-10.81,8.32-13.28l10.38-5.03c4.2-2.04,9.19.44,10.11,5.02l1.43,7.16c.87,4.35-2.4,8.43-6.84,8.53l-4.47.1c-3.33.07-6.34,2.02-7.76,5.03l-5.03,10.63-6.13.41Z"/>
  <circle class="st3" cx="324.69" cy="83.65" r="5.21"/>
  <g>
    <path d="M8.68-1035.07c-.32,0-.62-.12-.85-.35-.23-.23-.35-.53-.35-.85v-41.41c0-.66.54-1.2,1.2-1.2h1.3c3.55,0,6.87,1.38,9.37,3.89,5.5,5.53,14.52,16.21,13.08,25.65-.7,4.56-3.73,8.29-9.02,11.07-3.96,2.09-8.54,3.19-13.24,3.2h-1.48s0,0,0,0ZM9.18-1077.18v40.41h.98c4.43,0,8.73-1.05,12.45-3,4.79-2.52,7.52-5.83,8.14-9.83.58-3.79-.69-8.25-3.77-13.27-2.71-4.42-6.3-8.38-8.83-10.92-2.18-2.18-5.08-3.39-8.17-3.39h-.8Z"/>
    <path d="M79.1-1035.07c-.14,0-.27,0-.41,0-5.61-.16-9.76-3.26-11.99-8.97-1.74-4.44-1.92-9.32-1.88-11.84.01-.82,0-1.65,0-2.46v-.19c-.03-4.84,1.23-9.03,3.73-12.46,1.85-2.52,4.32-4.58,7.36-6.12,3.48-1.76,7.6-1.67,11.01.26,1.9,1.07,3.07,2.08,3.12,2.13l.73.64-3.76,3.29-.41-.08c-5.08-.95-10.19,1.57-12.42,6.12-.99,2.03-1.55,5.42-1.53,9.31v.13c-.02,4.06,1.08,7.17,3.29,9.25,1.69,1.59,4.89,3.39,10.7,3.19l-.29-2.16h-5.2v-5.91l10.53,1.62v11.94l-9.09,1.94c-1.22.26-2.39.39-3.51.39ZM81.18-1076.66c-1.54,0-3.08.36-4.49,1.07-4.66,2.36-10.21,7.24-10.16,17.05v.19c0,.82,0,1.66,0,2.5-.03,1.92.07,6.86,1.76,11.19,1.99,5.09,5.51,7.75,10.46,7.89,1.1.03,2.28-.08,3.51-.35l7.75-1.65v-9.11l-7.13-1.1v2.24h4.99l.73,5.45-.91.06c-6.99.46-10.87-1.7-12.89-3.6-2.57-2.42-3.85-5.95-3.83-10.49v-.11c-.01-2.43.19-6.98,1.7-10.06,2.51-5.12,8.16-8,13.85-7.12l1.64-1.43c-.49-.36-1.2-.84-2.06-1.33-1.53-.86-3.22-1.3-4.92-1.3Z"/>
    <path d="M49.81-1035.07s-.03,0-.05,0l-2.12-.02c-1.72-.02-3.44-.34-5.11-.96-2.37-.88-4.42-3.23-5.61-6.42-1.04-2.8-1.59-5.99-1.59-9.24v-.94c0-5.53.82-11.09,2.37-16.09l.81.25-.81-.25c.65-2.09,1.53-3.97,2.62-5.58,2.02-2.98,4.69-4.62,7.53-4.59,1.33.01,2.64.51,3.79,1.44,3.13,2.52,5.65,6.39,7.3,11.18l.12.34c.84,2.45,1.44,5.07,1.79,7.79.42,3.27.21,6.64-.61,9.75l-.27,1.02c-1.26,4.81-3.61,8.74-6.64,11.07-1.08.83-2.29,1.27-3.52,1.27ZM39.32-1068.24c-1.5,4.84-2.29,10.23-2.29,15.59v.94c0,3.04.51,6.03,1.49,8.64,1.02,2.73,2.69,4.71,4.61,5.42,1.48.55,3.01.84,4.54.86l2.12.02c.86,0,1.72-.31,2.51-.92,2.73-2.1,4.87-5.7,6.03-10.15l.27-1.02c.76-2.9.95-6.05.56-9.11-.33-2.61-.91-5.11-1.71-7.45l-.12-.34c-1.54-4.49-3.88-8.09-6.76-10.41-.85-.69-1.8-1.05-2.74-1.06-.02,0-.03,0-.05,0-2.23,0-4.38,1.36-6.06,3.84-1,1.47-1.8,3.2-2.4,5.13h0Z"/>
  </g>
  <path class="st2" d="M-438.34-402.08c0-.2,0-.41,0-.63,0-.22,0-.45-.03-.69-.02-.23-.05-.47-.08-.71l-.05-.36c-.02-.12-.05-.24-.07-.35-.05-.23-.11-.46-.17-.68-.12-.44-.29-.84-.45-1.16-.02-.27-.08-.55-.16-.85-.04-.15-.08-.31-.13-.47-.05-.16-.12-.32-.19-.49-.1-.24-.2-.45-.31-.66-.11-.2-.24-.39-.36-.57-.04-.16-.09-.33-.15-.51-.06-.18-.13-.35-.2-.53-.15-.36-.31-.74-.51-1.08-.37-.71-.85-1.34-1.28-1.76-.03-.04-.05-.08-.08-.12-.47-.69-1.14-1.45-1.78-1.99-.12-.22-.28-.47-.47-.72-.2-.24-.45-.5-.73-.75-.15-.15-.32-.27-.48-.38-.55-.59-1.25-1.11-2.05-1.6-.23-.25-.53-.55-.88-.85-.18-.14-.37-.29-.57-.44-.2-.14-.4-.3-.62-.42-.22-.13-.44-.26-.66-.38-.11-.06-.22-.12-.33-.17-.11-.06-.22-.1-.33-.15-.44-.18-.85-.33-1.22-.4-.38-.15-.77-.29-1.15-.41-.38-.12-.77-.2-1.14-.27-.08-.03-.16-.06-.24-.09-.15-.06-.31-.1-.47-.15-.16-.04-.33-.08-.5-.12-.22-.09-.45-.18-.69-.26-.24-.08-.49-.14-.75-.21-.04-.02-.08-.04-.12-.06-.02-.01-.05-.02-.07-.03-.25.04-.55-.01-.97-.12-1.01-.3-2.34-.53-3.62-.59-.32-.02-.63-.03-.94-.04-.31,0-.6.01-.88.03-.56.03-1.06.07-1.46.16-.24.05-.47.05-.77.02-.19-.02-.4-.04-.61-.06-.21-.01-.43-.02-.65-.02-.44,0-.87.02-1.24.08-.39.07-.56.21-.95.28-.28.05-.67.07-1.01.1-.69.05-1.38.1-2.09.18-.03,0-.05,0-.08.01-.11-.02-.19-.06-.24-.09.06.03-.03,0-.22.02-.2.02-.39.05-.58.09-.13.02-.25.05-.38.07-.13.02-.25.05-.37.09-.25.07-.49.15-.73.22-.43.13-.73.14-.96.11-.35-.06-1.47.28-2.03.48-.25.08-.5.15-.74.22-.25.07-.48.16-.72.23-.24.08-.48.16-.72.24-.24.08-.47.19-.72.28-.28.12-.56.24-.84.37-.27.14-.54.28-.8.43l-.4.22c-.13.07-.25.16-.38.24-.25.16-.5.33-.75.5-.13.08-.24.17-.36.27l-.35.28c-.23.19-.47.37-.68.57-.22.2-.43.41-.64.61-.1.1-.21.2-.31.31l-.3.33c-.27.3-.52.48-.73.56-.2.09-.37.08-.46,0-.7.6-1.33,1.36-1.63,2.02-.03.08-.06.14-.08.21-.15.19-.29.38-.43.58-.21.17-.43.41-.68.67-.12.13-.24.27-.37.42-.12.15-.23.31-.35.47-.23.32-.45.65-.62.99-.17.34-.34.66-.43.97-.77.77-1.69,2.21-2.04,3.77-.16.64-.16,1.15-.13,1.59-.04.09-.07.19-.11.29-.03.1-.06.2-.1.31-.06.21-.13.42-.19.65-.07.22-.11.46-.17.7-.05.24-.12.48-.16.74-.09.46-.18.99-.2,1.52-.22.82-.33,1.9-.29,2.77,0,.06,0,.11,0,.17-.1.29-.21.66-.25,1.09-.02.22-.04.45-.04.69,0,.25.02.51.05.78.02.18.05.35.08.51.02.08.03.16.05.24.02.1.05.21.07.31.1.28.22.55.34.81.02.23.04.46.08.7.05.25.11.5.17.75.07.25.14.5.23.73.1.23.2.44.31.64.19.71.51,1.41.84,2.09.13.42.29.86.49,1.3.22.43.48.83.75,1.17.05.06.09.11.14.15.15.28.3.56.48.85.12.34.34.71.63,1.13.13.18.24.35.39.51.14.16.28.31.43.46.15.15.29.29.45.44.16.14.32.27.49.41.12.19.26.39.41.59.15.2.33.4.51.59.18.19.36.39.56.57.2.17.39.33.58.48.08.11.16.22.26.34.1.12.22.24.35.36.23.22.48.44.74.65.27.2.56.4.86.59.29.2.62.37.95.56.17.09.34.18.51.27.18.09.36.17.54.26.08.04.16.08.24.11,0,0,.01,0,.02.01.45.27.91.44,1.37.59.7.49,1.61.95,2.56,1.28.1.06.19.11.3.17.1.05.21.1.32.16.22.1.45.21.69.31.2.09.43.16.66.24.23.07.47.15.71.21.48.13.98.21,1.41.27.13.04.27.07.4.09,0,0,.01,0,.02,0,.5.16,1.03.29,1.62.36.21.07.44.13.69.19.24.06.51.1.78.15.27.04.56.1.86.13.3.03.61.06.93.1.34.05.71.05,1.09.05.25.03.51.07.76.07.26.01.51.02.77.01.49.15,1.13.23,1.8.28.34.02.68.01,1.01,0,.17,0,.33-.02.49-.04.16-.02.32-.05.47-.08.16,0,.32,0,.49,0,.35,0,.73-.03,1.13-.08.2-.02.4-.05.6-.07h.02s.04,0,.04,0h0s.04,0,.04,0h.07s.15-.04.15-.04c.1-.02.19-.04.29-.06.19-.04.38-.09.56-.13.09-.02.18-.05.27-.07.09-.03.18-.06.27-.09.35-.12.66-.25.91-.37.11-.04.23-.06.34-.11,0,0,0,0,0,0,.63-.09,1.37-.24,1.97-.5.33-.07.7-.15,1.08-.33.11-.04.21-.09.3-.14.14-.02.28-.05.43-.08.15-.03.3-.07.45-.11.31-.09.63-.2.97-.32.3-.11.61-.26.93-.41.16-.08.33-.16.49-.25.16-.09.32-.19.48-.28.65-.37,1.24-.84,1.69-1.24.29-.22.59-.44.86-.67.14-.11.27-.23.39-.35.12-.12.23-.23.34-.35.08-.06.15-.12.23-.18.06-.05.11-.09.17-.14.05-.05.11-.1.16-.16.11-.1.22-.21.32-.32.18-.14.37-.29.55-.45.18-.16.35-.33.52-.51.06-.03.11-.07.17-.1.24-.14.48-.35.75-.58.13-.11.27-.24.41-.36.14-.13.27-.27.4-.41.16-.15.33-.32.5-.51.84-.98,1.44-2.11,1.99-3.43.13-.19.27-.39.39-.6.06-.1.13-.21.19-.32.06-.11.11-.22.17-.33.68-.83,1.36-2.18,1.54-3.25.06-.15.13-.28.19-.44.06-.15.12-.31.18-.47.06-.16.11-.34.16-.51.1-.35.2-.71.26-1.07.06-.36.12-.7.14-1.02.02-.32.02-.6,0-.84,0-.02,0-.03,0-.05.08-.2.15-.43.22-.68.07-.25.13-.52.18-.79.08-.55.15-1.11.11-1.58.01-.22.02-.45.03-.68,0-.23,0-.48,0-.73,0-.07,0-.15,0-.22.03-.12.05-.24.07-.37.02-.13.03-.26.05-.4.02-.22.04-.46.05-.72,0-.26,0-.53-.02-.8,0,0,0-.02,0-.03.02-.17.04-.35.05-.55Z"/>
  <path class="st7" d="M-474.22-402.38c.15,0,.31-.02.46-.06.33-.1.46-.2.72-.42.14-.11.22-.28.33-.42-.08.1-.16.21-.24.31.02-.02.03-.04.05-.05-.1.08-.21.16-.31.24,0,0,.02-.01.02-.02-.12.05-.25.1-.37.16.01,0,.03-.01.04-.01-.14.02-.28.04-.41.06,0,0,.01,0,.02,0,.14-.02.28-.04.41-.06.26-.07.49-.21.69-.4.29-.29.45-.69.45-1.1s-.16-.81-.45-1.1c-.28-.28-.7-.48-1.1-.46-.15,0-.31.02-.46.06-.33.1-.46.2-.72.42-.14.11-.22.28-.33.42.08-.1.16-.21.24-.31-.02.02-.03.04-.05.05.1-.08.21-.16.31-.24,0,0-.02.01-.02.02.12-.05.25-.1.37-.16-.01,0-.03.01-.04.01.14-.02.28-.04.41-.06,0,0-.01,0-.02,0-.14.02-.28.04-.41.06-.26.07-.49.21-.69.4-.29.29-.45.69-.45,1.1s.16.81.45,1.1c.28.28.7.48,1.1.45h0Z"/>
  <path class="st7" d="M-457.37-406.46s1.86-3.11,0-3.11c-2.02,0-2.02,3.11,0,3.11,0,0-2.02,0,0,0Z"/>
  <path class="st7" d="M-468.26-394.79c1.13.65,2.37.96,3.66,1.05,1.47.1,2.63-.38,3.91-1.03.45-.23,1-.29,1.46-.47.64-.25,1.16-.62,1.63-1.13.39-.42.7-.92,1.08-1.35.5-.56,1.02-1.12,1.37-1.8.91-1.78-1.77-3.35-2.68-1.57-.43.84-1.19,1.5-1.75,2.25-.57.77-1.23.79-2.08,1.12-.84.32-1.46.82-2.38.86-.92.05-1.85-.17-2.64-.63-1.74-1-3.3,1.68-1.57,2.68h0Z"/>
  <g>
    <rect class="st8" x="5.48" y="-266.12" width="213.27" height="213.27" rx="52.87" ry="52.87"/>
    <g>
      <path d="M145.94-153.39c-7.3-11.59-18.23-17.62-34.05-14.73,5.21-5.34,9.38-19.14,2.66-29.87-4.72-7.54-12.95-12.56-23.42-12.65-8.8-.11-21.63,4.03-31.38,8.82-9.9,4.86-21.03,12.33-28.06,19.42-4.1,4.09-2.78,9.08,1.82,13.88,2.05,2.05,5.76,2.04,8.28,1.83,12.7,27.2,26.96,63.18,34.03,80.83,1.67,4.08,7.98,1.59,11.21.5,3.38-1.16,9.66-2.52,9.38-7.23,12.45-.06,25.79-5.54,36.11-11.53,17.3-9.89,24.8-31.53,13.41-49.27Z"/>
      <path d="M114.77-241.3c.2-.3.25-.56.25-.81,0-2.22-3.13-3.54-5.06-3.54-1.11,0-3.24.4-4.3,1.57-4.65,5.06-8.9,11.12-8.9,16.73,0,5,3.34,8.04,8.44,8.7,8.8,1.11,13.55-4.7,14.66-10.21.96-4.95.2-9.96-5.11-12.44Z"/>
      <path class="st3" d="M106.26-209.13c.12-.17.15-.32.15-.46,0-1.28-1.8-2.03-2.9-2.03-.64,0-1.86.23-2.47.9-2.67,2.9-5.11,6.38-5.11,9.6,0,2.87,1.91,4.61,4.85,4.99,5.05.64,7.78-2.7,8.41-5.86.55-2.84.12-5.72-2.93-7.14Z"/>
      <path d="M176.52-168.71c-.27-1.08-1.18-3.04-2.57-3.79-6.04-3.28-12.95-5.92-18.4-4.56-4.85,1.22-6.98,5.19-6.38,10.31,1.06,8.8,7.86,12,13.48,11.73,5.04-.27,9.71-2.23,10.82-7.98.34.12.6.11.85.05,2.16-.54,2.67-3.9,2.2-5.77Z"/>
      <path d="M125.17-217.05c7.34-6.99,20.56-8.99,32.97-9.2,2.84-.06,6.02,2.22,7.4,3.67,2.39,2.51,4.58,8.25,1.67,11.02-.33.32-.72.56-1.37.68,3.37,10.03-2.23,17.25-9.91,22.17-8.59,5.41-22.12,6.43-31.61-6.46-5.5-7.5-5.68-15.64.86-21.87ZM135.35-197.62c4.09,4.3,10.96.92,14.73-2.67s4.98-8.14,3.91-11.79c-5.23.07-12.23.93-16.72,5.21-3.7,3.53-4.05,7-1.91,9.25Z"/>
      <path class="st3" d="M68.55-178.95c.28-.02.56-.04.83-.11.6-.17.83-.37,1.3-.76.24-.2.4-.5.59-.75-.15.19-.29.38-.44.57.03-.04.06-.07.09-.1-.19.15-.38.29-.57.44.01-.01.03-.02.04-.03-.22.09-.45.19-.67.28.03-.01.05-.02.08-.02-.25.03-.5.07-.74.1.01,0,.02,0,.03,0,.25-.03.5-.07.74-.1.47-.13.88-.37,1.23-.72.52-.52.82-1.24.82-1.98s-.3-1.45-.82-1.98c-.5-.5-1.26-.86-1.98-.82-.28.01-.56.04-.83.11-.6.17-.83.37-1.3.76-.24.2-.4.5-.59.75.15-.19.29-.38.44-.57-.03.04-.06.07-.09.1.19-.15.38-.29.57-.44-.01.01-.03.02-.04.03.22-.09.45-.19.67-.28-.03.01-.05.02-.08.02.25-.03.5-.07.74-.1-.01,0-.02,0-.03,0-.25.03-.5.07-.74.1-.47.13-.88.37-1.23.72-.52.52-.82,1.24-.82,1.98s.3,1.45.82,1.98c.5.5,1.26.86,1.98.82h0Z"/>
      <path d="M74.8-97.95l-29.07-4.59s10.27-14.69,31.73-10.2l-2.66,14.79Z"/>
      <path class="st9" d="M182.57-91.28c-1.68,3.17-4.62,7.32-6.81,9.63-1.02,1.06-4.89-1.17-3.8-2.86-.35-7.08-1.96-11.94-2.54-16.83-.12-.98,1.33-1.21,2.07-1.37.9-.16,2.35-.63,2.9.51,1.06,2.23,2,6.26,2.9,11.04l4.58-7.51c.35-.55,2.31-.39,2.74.39l3.21,7.16c.78-3.29,1.25-6.93,1.6-9.98.12-1.06,1.64-.86,2.39-.82.94.12,2.54.04,2.62,1.29.23,3.95-1.33,11.7-2.5,16.24-.82,3.13-3.05,4.11-4.5,1.88-1.92-2.97-3.84-6.61-4.85-8.77Z"/>
      <path class="st9" d="M144.82-82.76c-1.68,3.17-4.62,7.32-6.81,9.63-1.02,1.06-4.89-1.17-3.8-2.86-.35-7.08-1.96-11.94-2.54-16.83-.12-.98,1.33-1.21,2.07-1.37.9-.16,2.35-.63,2.9.51,1.06,2.23,2,6.26,2.9,11.04l4.58-7.51c.35-.55,2.31-.39,2.74.39l3.21,7.16c.78-3.29,1.25-6.93,1.6-9.98.12-1.06,1.64-.86,2.39-.82.94.12,2.54.04,2.62,1.29.23,3.95-1.33,11.7-2.5,16.24-.82,3.13-3.05,4.11-4.5,1.88-1.92-2.97-3.84-6.61-4.85-8.77Z"/>
    </g>
  </g>
  <path class="st6" d="M901.6-629.19c-8.89-4.98-19.98-2.62-27.8,3.17-6.6,4.89-9.95,12.92-10.17,20.93-7.79,1.06-32.87,5.42-37.63,6.47-2.14.47-4.34.84-6.46,1.42-.67-7.01-5.37-13.12-12.28-15.81-8.62-3.35-18.38-1.08-25.05,5.2-6.52,6.13-9.3,15.96-7,24.57,1.08,4.06,3.57,7.22,6.75,9.22-2.09,2.51-3.61,5.57-4.47,8.98-2.08,8.34,3.86,16.88,10.6,21.03,8.37,5.15,19.39,2.59,26.72-3.06,6.13-4.72,8.87-12.53,8.83-20.07,2.7-.48,5.38-1.17,8.06-1.75,1.61-.35,28.01-4.84,35.78-6.21,2.09,5.31,6.89,8.91,12.49,10.85,7.72,2.67,16.08-.42,22.29-5.06,5.94-4.44,11-12.46,9.09-20.07-.67-2.65-2.2-4.58-4.2-5.97,3.04-2.91,5.25-6.71,6.31-11.09,2.2-9.1-4.27-18.53-11.86-22.77ZM902.47-609.4c.63,4.62-3.51,10.76-8.37,11.02-6.11.32-7.91,8.81-1.02,9.05,2.39.08,7.49-.06,7.6,3.39.13,4.05-4.12,7.79-7.01,10.02-5.54,4.28-13.72,3.33-17.26-2.42,1.99-3.2-.51-8.24-5.81-7.54-9.49,1.26-19.09,2.92-28.38,5.25-4.18,1.05-8.1,1.99-12.3,2.91-4.06.89-8.4,1.67-12.25,3.35-2.24.61-4.26,2.46-4.1,5.07.62,10.17-7.18,20.66-18.19,17.79-9.7-2.53-11-17.33-1.57-20.47.87-.19,1.73-.43,2.59-.76,5.31-2.1,2.2-8.95-2.92-7.98-1.02.19-2,.46-2.95.78-4.26.16-6.44-6.16-6.54-9.68-.15-5.35,2.57-10.3,6.64-13.61,8.89-7.22,20.08.34,21.96,10.06-.61,1.61.16,3.63,2.14,4.01,4.36.84,8.55-.46,12.86-1.26,4.79-.89,9.6-1.71,14.39-2.59,8.26-1.52,16.56-2.97,24.87-4.18,2.12.6,4.8.05,6.25-1.47,1.5-1.12,1.81-3.02,1.12-4.6.71-10.34,7.67-20.51,19.4-17.49,5.13,1.32,8.14,6.45,8.81,11.36Z"/>
  <g>
    <path class="st6" d="M516.45-587.5c2.98-4.59,4.25-13.14,1.1-18.93-2.03-3.73-5.61-5.66-10.01-5.38-4.23.27-7.37,2.43-8.6,5.92-1.22,3.45-3.82,14.46.1,19.6,2,2.62,4.83,4.06,7.99,4.06h0c3.7,0,7.31-2.02,9.42-5.27ZM511.98-590.4c-1.12,1.73-3.06,2.84-4.96,2.84-1.03,0-2.52-.34-3.76-1.96-1.84-2.41-.8-10.38.69-14.6.64-1.8,2.48-2.28,3.92-2.38.18-.01.35-.02.51-.02,2.08,0,3.5.83,4.47,2.63,2.05,3.78,1.22,10.24-.89,13.49Z"/>
    <path class="st6" d="M594.54-606.04c-2.03-3.73-5.61-5.66-10.01-5.38-4.23.27-7.37,2.43-8.6,5.92-1.22,3.45-3.82,14.46.1,19.6,2,2.62,4.83,4.06,7.99,4.06h0c3.7,0,7.31-2.02,9.42-5.27,2.98-4.59,4.25-13.14,1.1-18.93ZM588.97-590c-1.12,1.73-3.06,2.84-4.96,2.84-1.03,0-2.52-.34-3.76-1.96-1.84-2.41-.8-10.38.69-14.6.64-1.8,2.48-2.28,3.92-2.38.18-.01.35-.02.51-.02,2.08,0,3.5.83,4.47,2.63,2.05,3.78,1.22,10.24-.89,13.49Z"/>
    <path class="st6" d="M532.36-601.48h0c1.18,0,2.27-.2,3.26-.58,4.12-1.61,6.88-4.95,8.18-9.91,1.15-4.39,1.27-11.13-2.2-15.68-1.98-2.6-4.81-4-8.16-4.04h-.13c-3.76,0-8.54,2.05-10.15,6.54-1.99,5.56-1.24,14.94.22,18.31,1.6,3.71,5.66,5.37,8.98,5.37ZM528.18-623.37c.7-1.95,3.16-3.01,5.13-3.01h.07c1.71.02,3.01.66,3.99,1.94,1.84,2.42,2.37,6.98,1.28,11.1-.87,3.31-2.45,5.32-4.97,6.3-.36.14-.81.21-1.32.21h0c-1.57,0-3.48-.74-4.09-2.16-.94-2.18-1.58-10.23-.09-14.4Z"/>
    <path class="st6" d="M560.01-600.74c.08,0,.16,0,.24,0,3.5-.06,6.4-1.42,8.4-3.93,4.67-5.87,2.99-15.9,2.37-18.84-.94-4.4-4.29-6.92-9.22-6.92-1.37,0-2.84.2-4.25.59-4.48,1.22-6.81,6.82-7.28,10.29-1.02,7.51-.2,12.66,2.51,15.77,1.74,1.99,4.24,3.04,7.23,3.04ZM555.54-618.83c.36-2.64,2.02-5.49,3.41-5.87.96-.26,1.95-.4,2.85-.4,3.43,0,3.83,1.9,4.01,2.7,1.07,5.01,1.07,11.41-1.33,14.42-1.01,1.28-2.39,1.89-4.32,1.92h-.14c-1.93,0-2.77-.7-3.22-1.22-1.57-1.8-2.02-5.9-1.25-11.55Z"/>
    <path class="st6" d="M568.93-584.28c-7.34-5.35-14.7-8.13-21.88-8.26-.16,0-.32,0-.48,0-6.82,0-14.44,2.62-21.46,7.39-5.8,3.94-10.73,10.27-13.88,17.82-4,9.62-3.07,17.88,2.56,22.67,2.37,2.01,5.24,3.03,8.54,3.03,3.84,0,7.68-1.35,11.08-2.55,1.05-.37,2.05-.72,2.99-1.01,1.32-.41,2.69-.61,4.19-.61,3.9,0,8.02,1.41,12.01,2.77,1.86.64,3.79,1.29,5.69,1.81,2.7.73,5.36,1.1,7.9,1.1,5.14,0,9.72-1.48,13.62-4.41,3.34-2.51,5.32-6.17,5.73-10.56.33-3.51-.39-7.51-2-11.25-2.97-6.87-8.15-13.24-14.59-17.94ZM576.59-548.79c-2.96,2.22-6.46,3.34-10.42,3.34-2.07,0-4.26-.31-6.51-.92-1.73-.47-3.49-1.07-5.36-1.71-4.4-1.5-8.95-3.06-13.73-3.06-2.01,0-3.94.28-5.76.85-1.03.32-2.08.69-3.18,1.07-3.14,1.1-6.39,2.24-9.32,2.24-2.06,0-3.67-.56-5.09-1.76-5.13-4.37-2.89-12.26-1.1-16.57,2.75-6.6,7-12.09,11.95-15.46,6.15-4.17,12.71-6.47,18.47-6.47.13,0,.26,0,.39,0,6.06.11,12.4,2.54,18.84,7.24,5.68,4.14,10.24,9.74,12.84,15.75,2.19,5.07,2.81,11.8-2.04,15.44Z"/>
  </g>
  <g>
    <path class="st6" d="M-340.45,37.17c1.1-1.69,1.57-4.84.41-6.98-.75-1.38-2.07-2.09-3.69-1.98-1.56.1-2.72.9-3.17,2.18-.45,1.27-1.41,5.33.04,7.23.74.97,1.78,1.5,2.95,1.5h0c1.37,0,2.7-.74,3.47-1.94Z"/>
    <path class="st6" d="M-311.66,30.33c-.75-1.38-2.07-2.09-3.69-1.98-1.56.1-2.72.9-3.17,2.18-.45,1.27-1.41,5.33.04,7.23.74.97,1.78,1.5,2.95,1.5h0c1.37,0,2.7-.74,3.47-1.94,1.1-1.69,1.57-4.84.41-6.98Z"/>
    <path class="st6" d="M-334.58,32.01h0c.43,0,.84-.07,1.2-.21,1.52-.6,2.54-1.82,3.02-3.65.43-1.62.47-4.1-.81-5.78-.73-.96-1.77-1.48-3.01-1.49h-.05c-1.39,0-3.15.75-3.74,2.41-.73,2.05-.46,5.51.08,6.75.59,1.37,2.09,1.98,3.31,1.98Z"/>
    <path class="st6" d="M-324.39,32.29s.06,0,.09,0c1.29-.02,2.36-.52,3.1-1.45,1.72-2.16,1.1-5.86.87-6.95-.35-1.62-1.58-2.55-3.4-2.55-.5,0-1.05.08-1.57.22-1.65.45-2.51,2.52-2.69,3.79-.38,2.77-.07,4.67.93,5.81.64.73,1.56,1.12,2.67,1.12Z"/>
    <path class="st6" d="M-321.1,38.35c-2.71-1.97-5.42-3-8.07-3.05-.06,0-.12,0-.18,0-2.51,0-5.33.97-7.91,2.72-2.14,1.45-3.96,3.79-5.12,6.57-1.48,3.55-1.13,6.59.95,8.36.87.74,1.93,1.12,3.15,1.12,1.41,0,2.83-.5,4.08-.94.39-.14.76-.27,1.1-.37.49-.15.99-.22,1.54-.22,1.44,0,2.96.52,4.43,1.02.69.23,1.4.48,2.1.67,1,.27,1.98.41,2.91.41,1.89,0,3.58-.55,5.02-1.63,1.23-.93,1.96-2.27,2.11-3.89.12-1.29-.14-2.77-.74-4.15-1.1-2.53-3.01-4.88-5.38-6.61Z"/>
  </g>
  <g>
    <path class="st6" d="M-462.51,172.31c1.1-1.69,1.57-4.84.41-6.98-.75-1.38-2.07-2.09-3.69-1.98-1.56.1-2.72.9-3.17,2.18-.45,1.27-1.41,5.33.04,7.23.74.97,1.78,1.5,2.95,1.5h0c1.37,0,2.7-.74,3.47-1.94Z"/>
    <path class="st6" d="M-433.72,165.48c-.75-1.38-2.07-2.09-3.69-1.98-1.56.1-2.72.9-3.17,2.18-.45,1.27-1.41,5.33.04,7.23.74.97,1.78,1.5,2.95,1.5h0c1.37,0,2.7-.74,3.47-1.94,1.1-1.69,1.57-4.84.41-6.98Z"/>
    <path class="st6" d="M-456.64,167.16h0c.43,0,.84-.07,1.2-.21,1.52-.6,2.54-1.82,3.02-3.65.43-1.62.47-4.1-.81-5.78-.73-.96-1.77-1.48-3.01-1.49h-.05c-1.39,0-3.15.75-3.74,2.41-.73,2.05-.46,5.51.08,6.75.59,1.37,2.09,1.98,3.31,1.98Z"/>
    <path class="st6" d="M-446.45,167.43s.06,0,.09,0c1.29-.02,2.36-.52,3.1-1.45,1.72-2.16,1.1-5.86.87-6.95-.35-1.62-1.58-2.55-3.4-2.55-.5,0-1.05.08-1.57.22-1.65.45-2.51,2.52-2.69,3.79-.38,2.77-.07,4.67.93,5.81.64.73,1.56,1.12,2.67,1.12Z"/>
    <path class="st6" d="M-443.16,173.5c-2.71-1.97-5.42-3-8.07-3.05-.06,0-.12,0-.18,0-2.51,0-5.33.97-7.91,2.72-2.14,1.45-3.96,3.79-5.12,6.57-1.48,3.55-1.13,6.59.95,8.36.87.74,1.93,1.12,3.15,1.12,1.41,0,2.83-.5,4.08-.94.39-.14.76-.27,1.1-.37.49-.15.99-.22,1.54-.22,1.44,0,2.96.52,4.43,1.02.69.23,1.4.48,2.1.67,1,.27,1.98.41,2.91.41,1.89,0,3.58-.55,5.02-1.63,1.23-.93,1.96-2.27,2.11-3.89.12-1.29-.14-2.77-.74-4.15-1.1-2.53-3.01-4.88-5.38-6.61Z"/>
  </g>
  <g>
    <path class="st6" d="M-315.92,116.54c-.77-13.67-5.65-28.01-13.21-39.4-7.73-11.64-21.25-13.92-34.04-10.43-16.55-9.23-38.45-6.1-53.67,4.32-.2.14-.36.28-.5.43-9.73-2.96-21.57.65-29.43,6.39-11.28,8.25-17.73,20.96-21.51,34.12-3.43,11.96.95,25.44,15.4,24.23,12.01-1,24.09-8.08,33.3-16,.47,15.68,7.65,37.59,24.78,39.67,9.03,1.1,16.59-5.52,22.17-11.78,5.96-6.7,10.48-14.55,13.67-22.9,6.86,8.17,15.29,15.16,26.65,14.51,12.59-.72,17-12.14,16.38-23.18ZM-331.71,134.53c-10.56,2.58-19.2-7.25-25.74-14.22-.17-2.86-5.37-3.62-6.4-.48-2.46,7.51-6,14.36-10.64,20.76-1.83,2.53-3.98,5.22-6.42,7.6-.36-3.76-4.85-5.83-8.92-5.81-5.28.03-10.92,1.88-13.26,6.88-.14.31-.26.6-.34.89-2.8-3.09-4.98-7.05-6.5-9.92-3.76-7.1-5.73-15.49-6.06-23.52,1.09-2.36-2.64-4.76-4.78-2.74-7.62,7.18-16.5,12.57-26.44,15.9-6.46,2.16-13.31,2.72-16.17-4.73-2.02-5.27.32-11.63,1.98-16.69,3.17-9.62,8.37-18.52,16.05-25.21,8.7-7.58,19.11-8.83,30.04-6.99,1.39.23,2.7-.83,2.67-1.91,14.29-9.76,30.79-9.82,46.44-4.32.14,1.29,1.17,2.44,2.96,2.32,4.6-.31,9.07-1.23,13.7-1.09,6.39.18,11.11,3.91,14.76,8.82,6.1,8.18,9.46,18.67,11.5,28.55,1.93,9.32,3.37,23.03-8.44,25.92Z"/>
    <path class="st6" d="M-400.32,98.88s-.07-.03-.1-.05c-.35-.2-.71-.36-1.11-.46-.75-.18-1.5-.18-2.26,0-1.71.43-3.12,1.9-3.12,3.72,0,1.42.87,2.68,2.1,3.34.67.35,1.38.53,2.14.53,1.19,0,2.04-.44,2.97-1.11-.24.17-.49.34-.73.51.03-.02.07-.03.1-.05,2.65-1.27,2.65-5.17,0-6.44Z"/>
    <path class="st6" d="M-369.69,98.88s-.07-.03-.1-.05c-.35-.2-.71-.36-1.11-.46-.75-.18-1.5-.18-2.26,0-1.71.43-3.12,1.9-3.12,3.72,0,1.42.87,2.68,2.1,3.34.67.35,1.38.53,2.14.53,1.19,0,2.04-.44,2.97-1.11-.24.17-.49.34-.73.51.03-.02.07-.03.1-.05,2.65-1.27,2.65-5.17,0-6.44Z"/>
  </g>
  <rect class="st8" x="-250.77" width="213.27" height="213.27" rx="52.87" ry="52.87"/>
  <rect class="st8" width="213.27" height="213.27" rx="52.87" ry="52.87"/>
  <g>
    <path class="st6" d="M-93.95,37.17c1.1-1.69,1.57-4.84.41-6.98-.75-1.38-2.07-2.09-3.69-1.98-1.56.1-2.72.9-3.17,2.18-.45,1.27-1.41,5.33.04,7.23.74.97,1.78,1.5,2.95,1.5h0c1.37,0,2.7-.74,3.47-1.94Z"/>
    <path class="st6" d="M-65.16,30.33c-.75-1.38-2.07-2.09-3.69-1.98-1.56.1-2.72.9-3.17,2.18-.45,1.27-1.41,5.33.04,7.23.74.97,1.78,1.5,2.95,1.5h0c1.37,0,2.7-.74,3.47-1.94,1.1-1.69,1.57-4.84.41-6.98Z"/>
    <path class="st6" d="M-88.09,32.01h0c.43,0,.84-.07,1.2-.21,1.52-.6,2.54-1.82,3.02-3.65.43-1.62.47-4.1-.81-5.78-.73-.96-1.77-1.48-3.01-1.49h-.05c-1.39,0-3.15.75-3.74,2.41-.73,2.05-.46,5.51.08,6.75.59,1.37,2.09,1.98,3.31,1.98Z"/>
    <path class="st6" d="M-77.89,32.29s.06,0,.09,0c1.29-.02,2.36-.52,3.1-1.45,1.72-2.16,1.1-5.86.87-6.95-.35-1.62-1.58-2.55-3.4-2.55-.5,0-1.05.08-1.57.22-1.65.45-2.51,2.52-2.69,3.79-.38,2.77-.07,4.67.93,5.81.64.73,1.56,1.12,2.67,1.12Z"/>
    <path class="st6" d="M-74.6,38.35c-2.71-1.97-5.42-3-8.07-3.05-.06,0-.12,0-.18,0-2.51,0-5.33.97-7.91,2.72-2.14,1.45-3.96,3.79-5.12,6.57-1.48,3.55-1.13,6.59.95,8.36.87.74,1.93,1.12,3.15,1.12,1.41,0,2.83-.5,4.08-.94.39-.14.76-.27,1.1-.37.49-.15.99-.22,1.54-.22,1.44,0,2.96.52,4.43,1.02.69.23,1.4.48,2.1.67,1,.27,1.98.41,2.91.41,1.89,0,3.58-.55,5.02-1.63,1.23-.93,1.96-2.27,2.11-3.89.12-1.29-.14-2.77-.74-4.15-1.1-2.53-3.01-4.88-5.38-6.61Z"/>
  </g>
  <g>
    <path class="st6" d="M-216.02,172.31c1.1-1.69,1.57-4.84.41-6.98-.75-1.38-2.07-2.09-3.69-1.98-1.56.1-2.72.9-3.17,2.18-.45,1.27-1.41,5.33.04,7.23.74.97,1.78,1.5,2.95,1.5h0c1.37,0,2.7-.74,3.47-1.94Z"/>
    <path class="st6" d="M-187.23,165.48c-.75-1.38-2.07-2.09-3.69-1.98-1.56.1-2.72.9-3.17,2.18-.45,1.27-1.41,5.33.04,7.23.74.97,1.78,1.5,2.95,1.5h0c1.37,0,2.7-.74,3.47-1.94,1.1-1.69,1.57-4.84.41-6.98Z"/>
    <path class="st6" d="M-210.15,167.16h0c.43,0,.84-.07,1.2-.21,1.52-.6,2.54-1.82,3.02-3.65.43-1.62.47-4.1-.81-5.78-.73-.96-1.77-1.48-3.01-1.49h-.05c-1.39,0-3.15.75-3.74,2.41-.73,2.05-.46,5.51.08,6.75.59,1.37,2.09,1.98,3.31,1.98Z"/>
    <path class="st6" d="M-199.96,167.43s.06,0,.09,0c1.29-.02,2.36-.52,3.1-1.45,1.72-2.16,1.1-5.86.87-6.95-.35-1.62-1.58-2.55-3.4-2.55-.5,0-1.05.08-1.57.22-1.65.45-2.51,2.52-2.69,3.79-.38,2.77-.07,4.67.93,5.81.64.73,1.56,1.12,2.67,1.12Z"/>
    <path class="st6" d="M-196.67,173.5c-2.71-1.97-5.42-3-8.07-3.05-.06,0-.12,0-.18,0-2.51,0-5.33.97-7.91,2.72-2.14,1.45-3.96,3.79-5.12,6.57-1.48,3.55-1.13,6.59.95,8.36.87.74,1.93,1.12,3.15,1.12,1.41,0,2.83-.5,4.08-.94.39-.14.76-.27,1.1-.37.49-.15.99-.22,1.54-.22,1.44,0,2.96.52,4.43,1.02.69.23,1.4.48,2.1.67,1,.27,1.98.41,2.91.41,1.89,0,3.58-.55,5.02-1.63,1.23-.93,1.96-2.27,2.11-3.89.12-1.29-.14-2.77-.74-4.15-1.1-2.53-3.01-4.88-5.38-6.61Z"/>
  </g>
  <g>
    <path class="st3" d="M-90.28,84.05c-3.65-4.9-8.37-8.64-14.76-8.82-4.64-.13-9.1.79-13.7,1.09-1.79.12-2.81-1.03-2.96-2.32-15.65-5.5-32.15-5.44-46.44,4.32.03,1.08-1.28,2.15-2.67,1.91-10.93-1.84-21.34-.59-30.04,6.99-7.68,6.69-12.88,15.59-16.05,25.21-1.67,5.06-4.01,11.42-1.98,16.69,2.86,7.45,9.71,6.9,16.17,4.73,9.94-3.33,18.82-8.72,26.44-15.9,2.14-2.02,5.88.38,4.78,2.74.33,8.03,2.3,16.42,6.06,23.52,1.52,2.87,3.71,6.83,6.5,9.92.09-.29.2-.59.34-.89,2.34-5,7.97-6.85,13.26-6.88,4.07-.02,8.56,2.04,8.92,5.8,2.44-2.37,4.59-5.07,6.42-7.6,4.64-6.39,8.17-13.25,10.64-20.76,1.03-3.13,6.23-2.38,6.4.48,6.54,6.97,15.18,16.8,25.74,14.22,11.8-2.89,10.36-16.6,8.44-25.92-2.04-9.88-5.4-20.37-11.5-28.55ZM-155.83,109.3s-.07.03-.1.05c.24-.17.49-.34.73-.51-.93.66-1.78,1.11-2.97,1.11-.76,0-1.47-.18-2.14-.53-1.23-.66-2.1-1.92-2.1-3.34,0-1.82,1.41-3.3,3.12-3.72.75-.18,1.5-.18,2.26,0,.4.1.76.26,1.11.46.03.02.07.03.1.05,2.65,1.27,2.65,5.17,0,6.44ZM-125.19,109.3s-.07.03-.1.05c.24-.17.49-.34.73-.51-.93.66-1.78,1.11-2.97,1.11-.76,0-1.47-.18-2.14-.53-1.23-.66-2.1-1.92-2.1-3.34,0-1.82,1.41-3.3,3.12-3.72.75-.18,1.5-.18,2.26,0,.4.1.76.26,1.11.46.03.02.07.03.1.05,2.65,1.27,2.65,5.17,0,6.44Z"/>
    <path class="st0" d="M-71.43,120.53c-.77-13.67-5.65-28.01-13.21-39.4-7.73-11.64-21.25-13.92-34.04-10.43-16.55-9.23-38.45-6.1-53.67,4.32-.2.14-.36.28-.5.43-9.73-2.96-21.57.65-29.43,6.39-11.28,8.25-17.73,20.96-21.51,34.12-3.43,11.96.95,25.44,15.4,24.23,12.01-1,24.09-8.08,33.3-16,.47,15.68,7.65,37.59,24.78,39.67,9.03,1.1,16.59-5.52,22.17-11.78,5.96-6.7,10.48-14.55,13.67-22.9,6.86,8.17,15.29,15.16,26.65,14.51,12.59-.72,17-12.14,16.38-23.18ZM-87.22,138.52c-10.56,2.58-19.2-7.25-25.74-14.22-.17-2.86-5.37-3.62-6.4-.48-2.46,7.51-6,14.36-10.64,20.76-1.83,2.53-3.98,5.22-6.42,7.6-.36-3.76-4.85-5.83-8.92-5.8-5.28.03-10.92,1.88-13.26,6.88-.14.31-.26.6-.34.89-2.8-3.09-4.98-7.05-6.5-9.92-3.76-7.1-5.73-15.49-6.06-23.52,1.09-2.36-2.64-4.76-4.78-2.74-7.62,7.18-16.5,12.57-26.44,15.9-6.46,2.16-13.31,2.72-16.17-4.73-2.02-5.27.32-11.63,1.98-16.69,3.17-9.62,8.37-18.52,16.05-25.21,8.71-7.58,19.11-8.83,30.04-6.99,1.39.23,2.7-.83,2.67-1.91,14.29-9.76,30.79-9.82,46.44-4.32.14,1.29,1.17,2.44,2.96,2.32,4.6-.31,9.07-1.23,13.7-1.09,6.39.18,11.11,3.91,14.76,8.82,6.1,8.18,9.46,18.67,11.5,28.55,1.93,9.32,3.37,23.03-8.44,25.92Z"/>
    <path class="st0" d="M-155.83,102.87s-.07-.03-.1-.05c-.35-.2-.71-.36-1.11-.46-.75-.18-1.5-.18-2.26,0-1.71.43-3.12,1.9-3.12,3.72,0,1.42.87,2.68,2.1,3.34.67.35,1.38.53,2.14.53,1.19,0,2.04-.44,2.97-1.11-.24.17-.49.34-.73.51.03-.02.07-.03.1-.05,2.65-1.27,2.65-5.17,0-6.44Z"/>
    <path class="st0" d="M-125.19,102.87s-.07-.03-.1-.05c-.35-.2-.71-.36-1.11-.46-.75-.18-1.5-.18-2.26,0-1.71.43-3.12,1.9-3.12,3.72,0,1.42.87,2.68,2.1,3.34.67.35,1.38.53,2.14.53,1.19,0,2.04-.44,2.97-1.11-.24.17-.49.34-.73.51.03-.02.07-.03.1-.05,2.65-1.27,2.65-5.17,0-6.44Z"/>
  </g>
  <path d="M181.37,135.57c-2.77-20.15-13.85-35.02-37.03-40.81,10.33-4.03,24.44-20.15,21.92-38.79-1.76-13.1-9.82-24.94-23.93-31.49-11.84-5.54-31.74-7.81-47.87-7.31-16.37.51-36.02,3.78-49.88,9.07-8.06,3.02-9.32,10.58-6.05,19.9,1.51,4.03,6.55,6.3,10.07,7.56.51,44.59-2.26,102.02-3.53,130.24-.25,6.55,9.83,7.05,14.86,7.55,5.29.51,14.61,2.52,17.13-4.03,16.88,7.56,38.29,8.31,55.92,6.55,29.47-2.77,52.9-27.46,48.37-58.44Z"/>
  <g>
    <path class="st3" d="M107.43,140.08c1.26-1.95,1.8-5.57.47-8.02-.86-1.58-2.38-2.4-4.24-2.28-1.79.12-3.12,1.03-3.64,2.51-.52,1.46-1.62,6.13.04,8.31.85,1.11,2.05,1.72,3.39,1.72h0c1.57,0,3.1-.85,3.99-2.23Z"/>
    <path class="st3" d="M140.52,132.23c-.86-1.58-2.38-2.4-4.24-2.28-1.79.12-3.12,1.03-3.64,2.51-.52,1.46-1.62,6.13.04,8.31.85,1.11,2.05,1.72,3.39,1.72h0c1.57,0,3.1-.85,3.99-2.23,1.26-1.95,1.8-5.57.47-8.02Z"/>
    <path class="st3" d="M114.17,134.15h0c.5,0,.96-.08,1.38-.25,1.75-.68,2.91-2.1,3.47-4.2.49-1.86.54-4.72-.93-6.65-.84-1.1-2.04-1.7-3.46-1.71h-.06c-1.59,0-3.62.87-4.3,2.77-.84,2.36-.52,6.33.09,7.76.68,1.57,2.4,2.27,3.8,2.27Z"/>
    <path class="st3" d="M125.89,134.47s.07,0,.1,0c1.48-.03,2.71-.6,3.56-1.67,1.98-2.49,1.27-6.74,1-7.98-.4-1.86-1.82-2.93-3.9-2.93-.58,0-1.2.09-1.8.25-1.9.52-2.89,2.89-3.09,4.36-.43,3.18-.08,5.37,1.06,6.68.74.84,1.8,1.29,3.06,1.29Z"/>
    <path class="st3" d="M129.67,141.44c-3.11-2.27-6.23-3.45-9.27-3.5-.07,0-.14,0-.2,0-2.89,0-6.12,1.11-9.09,3.13-2.46,1.67-4.55,4.35-5.88,7.55-1.7,4.07-1.3,7.58,1.09,9.61,1,.85,2.22,1.28,3.62,1.28,1.63,0,3.26-.57,4.69-1.08.45-.16.87-.31,1.27-.43.56-.17,1.14-.26,1.77-.26,1.65,0,3.4.6,5.09,1.17.79.27,1.61.55,2.41.77,1.14.31,2.27.47,3.35.47,2.18,0,4.12-.63,5.77-1.87,1.41-1.06,2.25-2.61,2.43-4.48.14-1.49-.16-3.18-.85-4.77-1.26-2.91-3.45-5.61-6.18-7.6Z"/>
  </g>
  <g>
    <path class="st3" d="M136.97,56.37c-1.04-3.32-2.88-6.22-6.27-7.52-2.47-.94-5.04-1.29-7.57-1.99-.98-.27-1.32-1.08-1.15-1.8-7.38-5.91-16.26-8.98-25.78-6.42-.19.59-1.09.91-1.8.53-5.53-3.05-11.36-4.34-17.47-1.9-5.39,2.15-9.86,5.95-13.37,10.53-1.85,2.41-4.3,5.38-4.21,8.6.13,4.55,3.92,5.54,7.8,5.59,5.97.08,11.76-1.14,17.21-3.57,1.53-.68,3.09,1.31,2.06,2.37-1.33,4.38-1.86,9.26-1.17,13.79.28,1.83.71,4.37,1.63,6.56.1-.14.22-.28.35-.42,2.2-2.25,5.58-2.18,8.42-1.2,2.19.76,4.22,2.71,3.7,4.8,1.76-.82,3.42-1.86,4.88-2.87,3.7-2.56,6.89-5.58,9.63-9.16,1.14-1.49,3.79-.11,3.35,1.46,2.2,4.98,5,11.89,11.16,12.49,6.89.67,8.7-6.97,9.42-12.35.76-5.7.93-11.97-.81-17.51ZM96.98,57.61s-.04,0-.06,0c.16-.05.33-.09.49-.14-.62.18-1.17.26-1.8.04-.41-.14-.76-.37-1.05-.69-.54-.58-.77-1.43-.5-2.19.34-.98,1.38-1.51,2.38-1.42.44.04.84.18,1.21.43.19.13.36.28.51.45.02.02.03.03.05.05,1.19,1.18.45,3.28-1.21,3.46ZM113.45,63.38s-.04,0-.06,0c.16-.05.33-.09.49-.14-.62.18-1.17.26-1.8.04-.41-.14-.76-.37-1.05-.69-.54-.58-.77-1.43-.5-2.19.34-.98,1.38-1.51,2.38-1.42.44.04.84.18,1.21.43.19.13.36.28.51.45.02.02.03.03.05.05,1.19,1.18.45,3.28-1.21,3.46Z"/>
    <path class="st0" d="M140.24,79.53c2.16-7.49,2.24-16.12.32-23.67-1.96-7.71-8.8-11.48-16.34-12.01-7.16-8.08-19.52-10.52-29.66-7.79-.14.04-.25.08-.35.14-4.67-3.42-11.72-3.71-17.02-2.1-7.62,2.31-13.48,7.93-17.99,14.29-4.1,5.78-4.28,13.85,3.72,15.93,6.64,1.72,14.47.19,20.91-2.33-2.7,8.52-2.96,21.65,5.85,25.99,4.65,2.29,9.96.16,14.14-2.16,4.47-2.48,8.37-5.85,11.66-9.74,2.15,5.68,5.36,11.03,11.59,12.82,6.9,1.98,11.43-3.33,13.17-9.37ZM128.36,86.23c-6.17-.6-8.96-7.51-11.16-12.49.45-1.57-2.2-2.96-3.35-1.46-2.74,3.57-5.93,6.59-9.63,9.16-1.46,1.01-3.12,2.06-4.88,2.87.51-2.09-1.51-4.04-3.7-4.8-2.85-.98-6.22-1.05-8.42,1.2-.13.14-.25.28-.35.42-.92-2.19-1.35-4.73-1.63-6.56-.69-4.53-.16-9.41,1.17-13.79,1.03-1.06-.52-3.06-2.06-2.37-5.45,2.43-11.24,3.65-17.21,3.57-3.88-.05-7.67-1.04-7.8-5.59-.09-3.22,2.36-6.19,4.21-8.6,3.52-4.58,7.99-8.38,13.37-10.53,6.11-2.44,11.94-1.15,17.47,1.9.7.39,1.61.06,1.8-.53,9.52-2.55,18.4.52,25.78,6.42-.16.72.17,1.53,1.15,1.8,2.53.7,5.1,1.05,7.57,1.99,3.4,1.3,5.23,4.2,6.27,7.52,1.74,5.55,1.57,11.82.81,17.51-.72,5.37-2.53,13.02-9.42,12.35Z"/>
    <path class="st0" d="M98.19,54.15s-.03-.03-.05-.05c-.15-.17-.31-.33-.51-.45-.37-.24-.77-.38-1.21-.43-1-.09-2.03.44-2.38,1.42-.27.76-.04,1.6.5,2.19.29.32.65.54,1.05.69.64.22,1.18.14,1.8-.04-.16.05-.33.09-.49.14.02,0,.04,0,.06,0,1.66-.18,2.4-2.28,1.21-3.46Z"/>
    <path class="st0" d="M114.66,59.91s-.03-.03-.05-.05c-.15-.17-.31-.33-.51-.45-.37-.24-.77-.38-1.21-.43-1-.09-2.03.44-2.38,1.42-.27.76-.04,1.6.5,2.19.29.32.65.54,1.05.69.64.22,1.18.14,1.8-.04-.16.05-.33.09-.49.14.02,0,.04,0,.06,0,1.66-.18,2.4-2.28,1.21-3.46Z"/>
  </g>
</svg>