<?xml version="1.0" encoding="UTF-8"?>
<svg id="_레이어_1" data-name="레이어_1" xmlns="http://www.w3.org/2000/svg" version="1.1" viewBox="0 0 213.27 213.27">
  <!-- Generator: Adobe Illustrator 30.2.1, SVG Export Plug-In . SVG Version: 2.1.1 Build 1)  -->
  <defs>
    <style>
      .st0 {
        fill: #231f20;
      }

      .st1 {
        fill: #C5D900;
      }
    </style>
  </defs>
  <rect class="st1" width="213.27" height="213.27" rx="52.87" ry="52.87"/>
  <g>
    <path class="st0" d="M158.82,33.18c1.1-1.69,1.57-4.84.41-6.98-.75-1.38-2.07-2.09-3.69-1.98-1.56.1-2.72.9-3.17,2.18-.45,1.27-1.41,5.33.04,7.23.74.97,1.78,1.5,2.95,1.5h0c1.37,0,2.7-.74,3.47-1.94Z"/>
    <path class="st0" d="M187.61,26.34c-.75-1.38-2.07-2.09-3.69-1.98-1.56.1-2.72.9-3.17,2.18-.45,1.27-1.41,5.33.04,7.23.74.97,1.78,1.5,2.95,1.5h0c1.37,0,2.7-.74,3.47-1.94,1.1-1.69,1.57-4.84.41-6.98Z"/>
    <path class="st0" d="M164.68,28.02h0c.43,0,.84-.07,1.2-.21,1.52-.6,2.54-1.82,3.02-3.65.43-1.62.47-4.1-.81-5.78-.73-.96-1.77-1.48-3.01-1.49h-.05c-1.39,0-3.15.75-3.74,2.41-.73,2.05-.46,5.51.08,6.75.59,1.37,2.09,1.98,3.31,1.98Z"/>
    <path class="st0" d="M174.88,28.3s.06,0,.09,0c1.29-.02,2.36-.52,3.1-1.45,1.72-2.16,1.1-5.86.87-6.95-.35-1.62-1.58-2.55-3.4-2.55-.5,0-1.05.08-1.57.22-1.65.45-2.51,2.52-2.69,3.79-.38,2.77-.07,4.67.93,5.81.64.73,1.56,1.12,2.67,1.12Z"/>
    <path class="st0" d="M178.17,34.36c-2.71-1.97-5.42-3-8.07-3.05-.06,0-.12,0-.18,0-2.51,0-5.33.97-7.91,2.72-2.14,1.45-3.96,3.79-5.12,6.57-1.48,3.55-1.13,6.59.95,8.36.87.74,1.93,1.12,3.15,1.12,1.41,0,2.83-.5,4.08-.94.39-.14.76-.27,1.1-.37.49-.15.99-.22,1.54-.22,1.44,0,2.96.52,4.43,1.02.69.23,1.4.48,2.1.67,1,.27,1.98.41,2.91.41,1.89,0,3.58-.55,5.02-1.63,1.23-.93,1.96-2.27,2.11-3.89.12-1.29-.14-2.77-.74-4.15-1.1-2.53-3.01-4.88-5.38-6.61Z"/>
  </g>
  <g>
    <path class="st0" d="M36.75,168.32c1.1-1.69,1.57-4.84.41-6.98-.75-1.38-2.07-2.09-3.69-1.98-1.56.1-2.72.9-3.17,2.18-.45,1.27-1.41,5.33.04,7.23.74.97,1.78,1.5,2.95,1.5h0c1.37,0,2.7-.74,3.47-1.94Z"/>
    <path class="st0" d="M65.54,161.49c-.75-1.38-2.07-2.09-3.69-1.98-1.56.1-2.72.9-3.17,2.18-.45,1.27-1.41,5.33.04,7.23.74.97,1.78,1.5,2.95,1.5h0c1.37,0,2.7-.74,3.47-1.94,1.1-1.69,1.57-4.84.41-6.98Z"/>
    <path class="st0" d="M42.62,163.17h0c.43,0,.84-.07,1.2-.21,1.52-.6,2.54-1.82,3.02-3.65.43-1.62.47-4.1-.81-5.78-.73-.96-1.77-1.48-3.01-1.49h-.05c-1.39,0-3.15.75-3.74,2.41-.73,2.05-.46,5.51.08,6.75.59,1.37,2.09,1.98,3.31,1.98Z"/>
    <path class="st0" d="M52.81,163.44s.06,0,.09,0c1.29-.02,2.36-.52,3.1-1.45,1.72-2.16,1.1-5.86.87-6.95-.35-1.62-1.58-2.55-3.4-2.55-.5,0-1.05.08-1.57.22-1.65.45-2.51,2.52-2.69,3.79-.38,2.77-.07,4.67.93,5.81.64.73,1.56,1.12,2.67,1.12Z"/>
    <path class="st0" d="M56.1,169.51c-2.71-1.97-5.42-3-8.07-3.05-.06,0-.12,0-.18,0-2.51,0-5.33.97-7.91,2.72-2.14,1.45-3.96,3.79-5.12,6.57-1.48,3.55-1.13,6.59.95,8.36.87.74,1.93,1.12,3.15,1.12,1.41,0,2.83-.5,4.08-.94.39-.14.76-.27,1.1-.37.49-.15.99-.22,1.54-.22,1.44,0,2.96.52,4.43,1.02.69.23,1.4.48,2.1.67,1,.27,1.98.41,2.91.41,1.89,0,3.58-.55,5.02-1.63,1.23-.93,1.96-2.27,2.11-3.89.12-1.29-.14-2.77-.74-4.15-1.1-2.53-3.01-4.88-5.38-6.61Z"/>
  </g>
  <g>
    <path class="st0" d="M183.34,112.55c-.77-13.67-5.65-28.01-13.21-39.4-7.73-11.64-21.25-13.92-34.04-10.43-16.55-9.23-38.45-6.1-53.67,4.32-.2.14-.36.28-.5.43-9.73-2.96-21.57.65-29.43,6.39-11.28,8.25-17.73,20.96-21.51,34.12-3.43,11.96.95,25.44,15.4,24.23,12.01-1,24.09-8.08,33.3-16,.47,15.68,7.65,37.59,24.78,39.67,9.03,1.1,16.59-5.52,22.17-11.78,5.96-6.7,10.48-14.55,13.67-22.9,6.86,8.17,15.29,15.16,26.65,14.51,12.59-.72,17-12.14,16.38-23.18ZM167.55,130.54c-10.56,2.58-19.2-7.25-25.74-14.22-.17-2.86-5.37-3.62-6.4-.48-2.46,7.51-6,14.36-10.64,20.76-1.83,2.53-3.98,5.22-6.42,7.6-.36-3.76-4.85-5.83-8.92-5.81-5.28.03-10.92,1.88-13.26,6.88-.14.31-.26.6-.34.89-2.8-3.09-4.98-7.05-6.5-9.92-3.76-7.1-5.73-15.49-6.06-23.52,1.09-2.36-2.64-4.76-4.78-2.74-7.62,7.18-16.5,12.57-26.44,15.9-6.46,2.16-13.31,2.72-16.17-4.73-2.02-5.27.32-11.63,1.98-16.69,3.17-9.62,8.37-18.52,16.05-25.21,8.7-7.58,19.11-8.83,30.04-6.99,1.39.23,2.7-.83,2.67-1.91,14.29-9.76,30.79-9.82,46.44-4.32.14,1.29,1.17,2.44,2.96,2.32,4.6-.31,9.07-1.23,13.7-1.09,6.39.18,11.11,3.91,14.76,8.82,6.1,8.18,9.46,18.67,11.5,28.55,1.93,9.32,3.37,23.03-8.44,25.92Z"/>
    <path class="st0" d="M98.94,94.89s-.07-.03-.1-.05c-.35-.2-.71-.36-1.11-.46-.75-.18-1.5-.18-2.26,0-1.71.43-3.12,1.9-3.12,3.72,0,1.42.87,2.68,2.1,3.34.67.35,1.38.53,2.14.53,1.19,0,2.04-.44,2.97-1.11-.24.17-.49.34-.73.51.03-.02.07-.03.1-.05,2.65-1.27,2.65-5.17,0-6.44Z"/>
    <path class="st0" d="M129.58,94.89s-.07-.03-.1-.05c-.35-.2-.71-.36-1.11-.46-.75-.18-1.5-.18-2.26,0-1.71.43-3.12,1.9-3.12,3.72,0,1.42.87,2.68,2.1,3.34.67.35,1.38.53,2.14.53,1.19,0,2.04-.44,2.97-1.11-.24.17-.49.34-.73.51.03-.02.07-.03.1-.05,2.65-1.27,2.65-5.17,0-6.44Z"/>
  </g>
</svg>