<?xml version="1.0" encoding="UTF-8"?>
<svg id="_레이어_1" data-name="레이어 1" xmlns="http://www.w3.org/2000/svg" viewBox="0 0 213.27 213.27">
  <defs>
    <style>
      .cls-1 {
        fill: #c5d900;
      }
    </style>
  </defs>
  <rect class="cls-1" width="213.27" height="213.27" rx="52.87" ry="52.87"/>
  <g>
    <path d="M146.37,117.87c-7.3-11.59-18.23-17.62-34.05-14.73,5.21-5.34,9.38-19.14,2.66-29.87-4.72-7.54-12.95-12.56-23.42-12.65-8.8-.11-21.63,4.03-31.38,8.82-9.9,4.86-21.03,12.33-28.06,19.42-4.1,4.09-2.78,9.08,1.82,13.88,2.05,2.05,5.76,2.04,8.28,1.83,12.7,27.2,26.96,63.18,34.03,80.83,1.67,4.08,7.98,1.59,11.21.5,3.38-1.16,9.66-2.52,9.38-7.23,12.45-.06,25.79-5.54,36.11-11.53,17.3-9.89,24.8-31.53,13.41-49.27Z"/>
    <path d="M115.2,29.96c.2-.3.25-.56.25-.81,0-2.22-3.13-3.54-5.06-3.54-1.11,0-3.24.4-4.3,1.57-4.65,5.06-8.9,11.12-8.9,16.73,0,5,3.34,8.04,8.44,8.7,8.8,1.11,13.55-4.7,14.66-10.21.96-4.95.2-9.96-5.11-12.44Z"/>
    <path d="M176.94,102.55c-.27-1.08-1.18-3.04-2.57-3.79-6.04-3.28-12.95-5.92-18.4-4.56-4.85,1.22-6.98,5.19-6.38,10.31,1.06,8.8,7.86,12,13.48,11.73,5.04-.27,9.71-2.23,10.82-7.98.34.12.6.11.85.05,2.16-.54,2.67-3.9,2.2-5.77Z"/>
    <path d="M125.6,54.21c7.34-6.99,20.56-8.99,32.97-9.2,2.84-.06,6.02,2.22,7.4,3.67,2.39,2.51,4.58,8.25,1.67,11.02-.33.32-.72.56-1.37.68,3.37,10.03-2.23,17.25-9.91,22.17-8.59,5.41-22.12,6.43-31.61-6.46-5.5-7.5-5.68-15.64.86-21.87ZM135.78,73.64c4.09,4.3,10.96.92,14.73-2.67,3.7-3.53,4.98-8.14,3.91-11.79-5.23.07-12.23.93-16.72,5.21-3.7,3.53-4.05,7-1.91,9.25Z"/>
  </g>
</svg>